<?xml version="1.0" encoding="UTF-8"?>
<!DOCTYPE svg PUBLIC "-//W3C//DTD SVG 1.1//EN" "http://www.w3.org/Graphics/SVG/1.1/DTD/svg11.dtd">
<svg xmlns="http://www.w3.org/2000/svg" version="1.1" width="100px" height="100px" style="shape-rendering:geometricPrecision; text-rendering:geometricPrecision; image-rendering:optimizeQuality; fill-rule:evenodd; clip-rule:evenodd" xmlns:xlink="http://www.w3.org/1999/xlink">
<g><path style="opacity:0.856" fill="#fefffe" d="M 77.5,7.5 C 94.3799,-1.11553 99.2132,3.21781 92,20.5C 91.6667,20.8333 91.3333,21.1667 91,21.5C 86.2967,16.9645 81.7967,12.2979 77.5,7.5 Z"/></g>
<g><path style="opacity:0.729" fill="#fefffe" d="M 77.5,7.5 C 75.9731,7.42702 74.9731,8.09368 74.5,9.5C 73.8333,9.5 73.5,9.83333 73.5,10.5C 66.8681,10.816 61.2014,13.316 56.5,18C 51.463,23.5286 47.463,29.6952 44.5,36.5C 43.8333,36.5 43.5,36.8333 43.5,37.5C 42.8333,37.5 42.5,37.8333 42.5,38.5C 41.8333,38.5 41.5,38.8333 41.5,39.5C 40.8333,39.5 40.5,39.8333 40.5,40.5C 39.8333,40.5 39.5,40.8333 39.5,41.5C 36.8127,41.6641 34.146,41.4974 31.5,41C 30.4829,39.9505 30.3162,38.7839 31,37.5C 33.899,37.0233 36.5657,36.0233 39,34.5C 44.5513,20.9487 54.0513,11.4487 67.5,6C 70.5,5.33333 73.5,5.33333 76.5,6C 77.056,6.38258 77.3893,6.88258 77.5,7.5 Z"/></g>
<g><path style="opacity:0.93" fill="#fefffe" d="M 74.5,9.5 C 79.6313,14.1302 84.6313,18.9635 89.5,24C 71.9509,45.8829 52.1176,65.3829 30,82.5C 25.3781,78.8808 21.0448,74.8808 17,70.5C 16.5825,68.212 17.2491,66.212 19,64.5C 26.0411,56.9623 32.8744,49.2956 39.5,41.5C 40.1667,41.5 40.5,41.1667 40.5,40.5C 41.1667,40.5 41.5,40.1667 41.5,39.5C 42.1667,39.5 42.5,39.1667 42.5,38.5C 43.1667,38.5 43.5,38.1667 43.5,37.5C 44.1667,37.5 44.5,37.1667 44.5,36.5C 53.642,27.1207 63.3087,18.454 73.5,10.5C 74.1667,10.5 74.5,10.1667 74.5,9.5 Z"/></g>
<g><path style="opacity:0.855" fill="#fefffe" d="M 13.5,71.5 C 18.2979,75.7967 22.9645,80.2967 27.5,85C 22.0021,88.748 16.0021,91.4146 9.5,93C 7.20023,97.1955 4.8669,97.3622 2.5,93.5C 3.48032,92.0186 4.64699,90.6853 6,89.5C 7.70235,83.1042 10.2023,77.1042 13.5,71.5 Z"/></g>
</svg>
