<?xml version="1.0" encoding="UTF-8"?>
<!DOCTYPE svg PUBLIC "-//W3C//DTD SVG 1.1//EN" "http://www.w3.org/Graphics/SVG/1.1/DTD/svg11.dtd">
<svg xmlns="http://www.w3.org/2000/svg" version="1.1" width="512px" height="512px" style="shape-rendering:geometricPrecision; text-rendering:geometricPrecision; image-rendering:optimizeQuality; fill-rule:evenodd; clip-rule:evenodd" xmlns:xlink="http://www.w3.org/1999/xlink">
<g><path style="opacity:0.92" fill="#fefffe" d="M 228.5,12.5 C 247.503,12.3334 266.503,12.5001 285.5,13C 289.667,14.5 292.5,17.3333 294,21.5C 294.667,39.8333 294.667,58.1667 294,76.5C 292.833,81.6667 289.667,84.8333 284.5,86C 266.5,86.6667 248.5,86.6667 230.5,86C 225.765,84.9319 222.598,82.0986 221,77.5C 220.333,58.8333 220.333,40.1667 221,21.5C 222.614,17.7229 225.114,14.7229 228.5,12.5 Z M 233.5,25.5 C 249.5,25.5 265.5,25.5 281.5,25.5C 281.5,41.5 281.5,57.5 281.5,73.5C 265.5,73.5 249.5,73.5 233.5,73.5C 233.5,57.5 233.5,41.5 233.5,25.5 Z"/></g>
<g><path style="opacity:0.904" fill="#fefffe" d="M 180.5,44.5 C 184.319,44.605 187.986,45.4383 191.5,47C 196.636,48.5964 201.469,50.7631 206,53.5C 206.667,55.8333 206.667,58.1667 206,60.5C 201.852,66.6428 197.352,72.4761 192.5,78C 185.95,79.1225 182.784,76.2892 183,69.5C 123.261,95.2392 82.9276,138.906 62,200.5C 59.2628,201.61 56.4294,201.777 53.5,201C 51.8481,199.53 50.8481,197.697 50.5,195.5C 72.2503,129.582 115.25,83.415 179.5,57C 175.4,52.445 175.733,48.2783 180.5,44.5 Z"/></g>
<g><path style="opacity:0.904" fill="#fefffe" d="M 308.5,49.5 C 379.053,67.8813 428.887,110.548 458,177.5C 458.333,177.833 458.667,178.167 459,178.5C 464.842,174.28 469.009,175.613 471.5,182.5C 469.235,188.796 467.068,195.129 465,201.5C 461.939,207.179 457.772,208.013 452.5,204C 447.692,200.692 443.025,197.192 438.5,193.5C 435.641,186.523 437.975,182.69 445.5,182C 418.14,120.644 372.14,80.6444 307.5,62C 303.286,57.3615 303.619,53.1948 308.5,49.5 Z"/></g>
<g><path style="opacity:0.913" fill="#fefffe" d="M 250.5,105.5 C 284.425,104.113 315.758,112.279 344.5,130C 351.96,135.126 358.46,141.293 364,148.5C 368.879,156.694 368.546,164.694 363,172.5C 362.333,175.5 362.333,178.5 363,181.5C 366.795,195.211 369.961,209.044 372.5,223C 372.626,230.246 370.126,236.412 365,241.5C 364.333,244.167 364.333,246.833 365,249.5C 369.64,260.117 375.307,270.117 382,279.5C 385.833,286.978 385,293.812 379.5,300C 374.64,302.246 369.807,304.413 365,306.5C 365.259,310.31 365.759,314.143 366.5,318C 366.514,321.476 365.514,324.643 363.5,327.5C 366.043,333.451 366.043,339.451 363.5,345.5C 365.603,354.05 364.437,362.05 360,369.5C 354.269,373.887 347.769,375.554 340.5,374.5C 328,373.858 315.667,372.358 303.5,370C 302.283,371.648 301.45,373.481 301,375.5C 300.667,386.833 300.333,398.167 300,409.5C 299.5,410 299,410.5 298.5,411C 259.251,412.654 219.918,412.988 180.5,412C 178.667,411.5 177.5,410.333 177,408.5C 176.667,392.5 176.333,376.5 176,360.5C 175.48,348.337 173.813,336.337 171,324.5C 161.938,306.042 152.604,287.709 143,269.5C 119.79,215.852 129.957,169.685 173.5,131C 188.844,119.991 205.844,112.657 224.5,109C 233.273,107.5 241.94,106.334 250.5,105.5 Z M 250.5,118.5 C 280.994,117.373 309.327,124.54 335.5,140C 343.357,145.023 349.69,151.523 354.5,159.5C 351.398,164.641 349.398,170.141 348.5,176C 352.049,191.49 355.715,206.99 359.5,222.5C 359.333,223.833 359.167,225.167 359,226.5C 349.666,238.55 348.999,251.217 357,264.5C 361.865,272.687 366.699,280.854 371.5,289C 366.867,290.992 362.201,292.992 357.5,295C 351.129,301.312 349.795,308.645 353.5,317C 351.466,318.83 349.299,320.663 347,322.5C 346.333,324.833 346.333,327.167 347,329.5C 349.222,331.385 351.056,333.551 352.5,336C 351.317,338.714 350.651,341.547 350.5,344.5C 351.64,349.534 351.64,354.534 350.5,359.5C 348.058,360.994 345.391,361.994 342.5,362.5C 311.782,359.488 282.449,351.488 254.5,338.5C 246.545,340.819 245.545,344.986 251.5,351C 263.956,357.394 276.956,362.394 290.5,366C 289.286,368.351 288.452,370.851 288,373.5C 287.5,382.16 287.334,390.827 287.5,399.5C 254.833,399.5 222.167,399.5 189.5,399.5C 190.476,374.999 188.976,350.665 185,326.5C 184.129,322.016 182.796,317.683 181,313.5C 171.667,295.5 162.333,277.5 153,259.5C 134.902,212.389 145.069,172.556 183.5,140C 203.952,126.807 226.285,119.64 250.5,118.5 Z M 229.5,142.5 C 266.199,140.92 291.699,156.92 306,190.5C 316.207,231.241 302.707,261.075 265.5,280C 228.697,291.733 199.197,281.899 177,250.5C 160.002,216.168 165.168,185.668 192.5,159C 203.563,150.486 215.896,144.986 229.5,142.5 Z M 235.5,161.5 C 244.244,161.413 246.577,165.246 242.5,173C 236.723,175.611 233.39,173.778 232.5,167.5C 232.628,165.045 233.628,163.045 235.5,161.5 Z M 200.5,207.5 C 207.502,207.652 210.002,210.985 208,217.5C 202.635,221.745 198.802,220.578 196.5,214C 196.722,211.038 198.056,208.871 200.5,207.5 Z M 272.5,236.5 C 278.765,236.363 281.265,239.363 280,245.5C 274.671,251.368 270.504,250.535 267.5,243C 268.283,240.062 269.95,237.896 272.5,236.5 Z"/></g>
<g><path style="opacity:0.91" fill="#fefffe" d="M 228.5,129.5 C 272.472,127.69 302.638,147.023 319,187.5C 329.523,229.625 317.023,262.792 281.5,287C 248.59,303.881 216.923,301.881 186.5,281C 155.071,253.12 146.571,219.286 161,179.5C 174.789,151.027 197.289,134.36 228.5,129.5 Z M 229.5,142.5 C 215.896,144.986 203.563,150.486 192.5,159C 165.168,185.668 160.002,216.168 177,250.5C 199.197,281.899 228.697,291.733 265.5,280C 302.707,261.075 316.207,231.241 306,190.5C 291.699,156.92 266.199,140.92 229.5,142.5 Z M 235.5,161.5 C 233.628,163.045 232.628,165.045 232.5,167.5C 233.39,173.778 236.723,175.611 242.5,173C 246.577,165.246 244.244,161.413 235.5,161.5 Z M 200.5,207.5 C 198.056,208.871 196.722,211.038 196.5,214C 198.802,220.578 202.635,221.745 208,217.5C 210.002,210.985 207.502,207.652 200.5,207.5 Z M 272.5,236.5 C 269.95,237.896 268.283,240.062 267.5,243C 270.504,250.535 274.671,251.368 280,245.5C 281.265,239.363 278.765,236.363 272.5,236.5 Z"/></g>
<g><path style="opacity:0.92" fill="#fefffe" d="M 233.5,148.5 C 251.655,147.822 259.488,156.489 257,174.5C 254.667,180.167 250.667,184.167 245,186.5C 244.667,214.5 244.333,242.5 244,270.5C 241.431,273.57 238.264,274.237 234.5,272.5C 233.194,271.088 232.36,269.421 232,267.5C 231.833,240.161 231.333,212.827 230.5,185.5C 220.785,180.39 217.285,172.39 220,161.5C 222.417,154.915 226.917,150.582 233.5,148.5 Z M 235.5,161.5 C 233.628,163.045 232.628,165.045 232.5,167.5C 233.39,173.778 236.723,175.611 242.5,173C 246.577,165.246 244.244,161.413 235.5,161.5 Z"/></g>
<g><path style="opacity:0.914" fill="#fefffe" d="M 199.5,169.5 C 202.685,169.02 205.519,169.686 208,171.5C 209.27,179.397 209.937,187.397 210,195.5C 222.838,203.183 225.504,213.516 218,226.5C 215.512,228.743 212.846,230.743 210,232.5C 209.667,239.833 209.333,247.167 209,254.5C 206.947,258.292 203.781,259.458 199.5,258C 198.667,257.167 197.833,256.333 197,255.5C 196.667,247.833 196.333,240.167 196,232.5C 184.109,225.83 180.776,216.163 186,203.5C 188.756,200.073 192.09,197.407 196,195.5C 196.333,187.833 196.667,180.167 197,172.5C 197.698,171.309 198.531,170.309 199.5,169.5 Z M 200.5,207.5 C 198.056,208.871 196.722,211.038 196.5,214C 198.802,220.578 202.635,221.745 208,217.5C 210.002,210.985 207.502,207.652 200.5,207.5 Z"/></g>
<g><path style="opacity:0.915" fill="#fefffe" d="M 270.5,169.5 C 272.857,169.337 275.19,169.503 277.5,170C 278.667,170.5 279.5,171.333 280,172.5C 280.333,189.833 280.667,207.167 281,224.5C 293.28,231.005 296.613,240.672 291,253.5C 280.298,265.062 269.298,265.395 258,254.5C 251.711,241.649 254.711,231.649 267,224.5C 267.333,207.5 267.667,190.5 268,173.5C 268.662,172.016 269.496,170.683 270.5,169.5 Z M 272.5,236.5 C 269.95,237.896 268.283,240.062 267.5,243C 270.504,250.535 274.671,251.368 280,245.5C 281.265,239.363 278.765,236.363 272.5,236.5 Z"/></g>
<g><path style="opacity:0.92" fill="#fefffe" d="M 46.5,209.5 C 61.2897,216.609 75.623,224.609 89.5,233.5C 90.0983,234.795 90.5983,236.128 91,237.5C 91.1667,244.667 91.3333,251.833 91.5,259C 91.6041,267.559 91.1041,276.059 90,284.5C 76.3635,293.403 62.1968,301.403 47.5,308.5C 32.8032,301.403 18.6365,293.403 5,284.5C 4.18123,267.456 4.3479,250.456 5.5,233.5C 19.0977,225.208 32.7644,217.208 46.5,209.5 Z M 45.5,224.5 C 46.8734,224.343 48.2068,224.51 49.5,225C 58.6687,230.752 68.002,236.252 77.5,241.5C 78.6659,253.152 78.8325,264.819 78,276.5C 68.0382,282.564 57.8715,288.23 47.5,293.5C 37.1285,288.23 26.9618,282.564 17,276.5C 16.1675,264.819 16.3341,253.152 17.5,241.5C 27.2299,236.31 36.5633,230.643 45.5,224.5 Z"/></g>
<g><path style="opacity:0.908" fill="#fefffe" d="M 459.5,219.5 C 483.391,217.513 498.891,227.847 506,250.5C 509.144,275 498.977,290.834 475.5,298C 450.717,300.866 434.884,290.366 428,266.5C 425.688,242.017 436.188,226.351 459.5,219.5 Z M 461.5,232.5 C 477.289,230.971 487.789,237.638 493,252.5C 495.329,268.68 488.829,279.513 473.5,285C 456.964,287.12 446.131,280.287 441,264.5C 439.594,248.431 446.427,237.764 461.5,232.5 Z"/></g>
<g><path style="opacity:0.906" fill="#fefffe" d="M 456.5,308.5 C 462.028,307.069 465.362,309.069 466.5,314.5C 445.986,385.682 401.319,435.015 332.5,462.5C 337.233,471.591 334.566,475.424 324.5,474C 318.421,471.863 312.421,469.529 306.5,467C 304.718,464.757 304.218,462.257 305,459.5C 309.137,453.396 313.637,447.563 318.5,442C 325.415,439.39 328.915,441.89 329,449.5C 392.719,423.449 434.386,377.449 454,311.5C 455.045,310.627 455.878,309.627 456.5,308.5 Z"/></g>
<g><path style="opacity:0.906" fill="#fefffe" d="M 56.5,318.5 C 64.7681,321.388 72.2681,325.721 79,331.5C 81.5465,338.482 79.0465,341.982 71.5,342C 99.07,400.565 144.07,438.565 206.5,456C 209.852,458.691 210.685,461.857 209,465.5C 205.333,468.95 201.166,469.45 196.5,467C 132.482,446.976 86.6483,406.476 59,345.5C 55.4784,350.398 51.4784,350.731 47,346.5C 47.3934,338.629 49.0601,330.963 52,323.5C 53.025,321.313 54.525,319.646 56.5,318.5 Z"/></g>
<g><path style="opacity:0.91" fill="#fefffe" d="M 253.5,416.5 C 257.96,415.885 261.96,416.885 265.5,419.5C 277.919,440.002 290.085,460.669 302,481.5C 304.602,488.952 302.435,494.452 295.5,498C 269.833,498.667 244.167,498.667 218.5,498C 214.154,495.647 211.821,491.98 211.5,487C 212.289,482.917 213.789,479.084 216,475.5C 226,458.167 236,440.833 246,423.5C 247.742,420.254 250.242,417.921 253.5,416.5 Z M 256.5,431.5 C 257.376,431.369 258.043,431.702 258.5,432.5C 268.5,449.833 278.5,467.167 288.5,484.5C 267.833,485.833 247.167,485.833 226.5,484.5C 236.777,466.941 246.777,449.274 256.5,431.5 Z"/></g>
</svg>
