<!-- icon666.com - MILLIONS vector ICONS FREE --><svg id="Capa_1" enable-background="new 0 0 512 512" viewBox="0 0 512 512" xmlns="http://www.w3.org/2000/svg"><g><path d="m430.293 227.155c3.168.608 7.824-1.32 8.765-5.974 2.162-11.418 3.259-23.149 3.259-34.87 0-12.074-1.163-24.152-3.457-35.9-.793-4.065-4.732-6.713-8.799-5.924-4.065.794-6.718 4.733-5.924 8.799 2.11 10.803 3.18 21.914 3.18 33.025 0 10.786-1.009 21.579-2.997 32.079-.771 4.07 1.903 7.995 5.973 8.765z" fill="#000000" style="fill: rgb(255, 255, 255);"></path><path d="m357.985 323.977c-13.345 9.902-27.999 17.785-43.556 23.428-3.894 1.413-5.905 5.715-4.493 9.608 1.106 3.05 3.984 4.944 7.052 4.944.849 0 1.713-.146 2.557-.451 16.925-6.14 32.865-14.714 47.38-25.484 3.326-2.468 4.021-7.165 1.553-10.492-2.469-3.326-7.166-4.021-10.493-1.553z" fill="#000000" style="fill: rgb(255, 255, 255);"></path><path d="m195.024 361.957c3.066 0 5.945-1.896 7.052-4.944 1.412-3.894-.6-8.195-4.493-9.608-14.021-5.086-27.349-12.013-39.616-20.589-3.393-2.374-8.071-1.546-10.443 1.85-2.374 3.395-1.546 8.07 1.85 10.443 13.342 9.328 27.841 16.863 43.095 22.397.843.306 1.706.451 2.555.451z" fill="#000000" style="fill: rgb(255, 255, 255);"></path><path d="m84.73 134.236c-4.008-1.036-8.101 1.377-9.136 5.388-3.915 15.168-5.9 30.877-5.9 46.688 0 11.493 1.055 23.002 3.136 34.209.67 3.61 3.821 6.132 7.365 6.132.454 0 .915-.041 1.378-.127 4.072-.756 6.761-4.671 6.005-8.743-1.913-10.306-2.884-20.895-2.884-31.471 0-14.547 1.825-28.994 5.424-42.939 1.035-4.012-1.377-8.102-5.388-9.137z" fill="#000000" style="fill: rgb(255, 255, 255);"></path><path d="m154.866 46.337c1.464 0 2.943-.428 4.24-1.319 14.767-10.146 30.93-17.869 48.04-22.951 3.971-1.18 6.233-5.354 5.054-9.325-1.179-3.97-5.352-6.234-9.325-5.054-18.617 5.53-36.201 13.93-52.263 24.967-3.414 2.346-4.28 7.016-1.935 10.429 1.454 2.115 3.801 3.253 6.189 3.253z" fill="#000000" style="fill: rgb(255, 255, 255);"></path><path d="m240.291 15.711c5.192-.472 10.479-.711 15.714-.711 35.683 0 69.879 10.861 98.893 31.408 1.316.933 2.83 1.381 4.328 1.381 2.351 0 4.666-1.103 6.127-3.166 2.395-3.381 1.595-8.062-1.785-10.455-31.563-22.354-68.757-34.168-107.563-34.168-5.687 0-11.431.26-17.071.771-4.125.375-7.165 4.022-6.791 8.148.376 4.126 4.011 7.158 8.148 6.792z" fill="#000000" style="fill: rgb(255, 255, 255);"></path><path d="m201.035 118.365c-2.092-1.211-4.53-1.533-6.865-.906-2.332.626-4.281 2.122-5.486 4.212l-22.321 38.661c-2.491 4.317-1.006 9.856 3.31 12.346l9.978 5.761c-.406 4.216-.638 9.229 0 15.746l-9.976 5.76c-4.317 2.49-5.803 8.029-3.311 12.349l22.319 38.657c1.207 2.092 3.156 3.589 5.49 4.214 2.333.624 4.767.303 6.858-.903l9.972-5.757c4.277 3.103 8.843 5.745 13.643 7.896v11.494c0 4.984 4.055 9.04 9.039 9.04h44.641c4.984 0 9.039-4.056 9.039-9.04v-11.495c4.798-2.15 9.363-4.793 13.643-7.896l9.974 5.758c2.091 1.207 4.525 1.524 6.856.902 2.334-.625 4.283-2.122 5.489-4.212l22.321-38.661c2.491-4.317 1.006-9.856-3.31-12.346l-9.978-5.761c.406-4.216.638-9.229 0-15.746l9.976-5.76c4.317-2.49 5.803-8.029 3.311-12.349l-22.319-38.657c-1.206-2.092-3.155-3.588-5.487-4.214-2.337-.625-4.773-.305-6.861.903l-9.972 5.757c-4.277-3.103-8.843-5.745-13.643-7.896v-11.495c0-4.984-4.055-9.039-9.039-9.039h-44.641c-4.984 0-9.039 4.055-9.039 9.039v11.495c-4.798 2.15-9.363 4.793-13.643 7.896zm32.816 10.268c3.466-1.332 5.795-4.718 5.795-8.423v-9.521h32.719v9.521c0 3.705 2.329 7.091 5.795 8.423 6.021 2.315 11.636 5.566 16.691 9.662 2.93 2.374 6.93 2.694 10.199.811l8.267-4.772 16.359 28.335-8.271 4.775c-3.257 1.882-4.983 5.503-4.397 9.229.509 3.226.767 6.468.767 9.639s-.258 6.413-.768 9.644c-.585 3.722 1.142 7.343 4.401 9.227l8.269 4.773-16.359 28.335-8.264-4.771c-3.214-1.859-7.317-1.531-10.2.808-5.058 4.097-10.674 7.348-16.693 9.663-3.466 1.332-5.795 4.718-5.795 8.423v9.521h-32.719v-9.521c0-3.705-2.329-7.091-5.795-8.423-6.021-2.315-11.636-5.566-16.691-9.662-2.89-2.341-6.988-2.665-10.199-.811l-8.267 4.772-16.359-28.335 8.271-4.775c3.257-1.882 4.983-5.503 4.397-9.229-.509-3.226-.767-6.468-.767-9.639s.258-6.413.768-9.644c.585-3.722-1.142-7.343-4.401-9.227l-8.269-4.773 16.359-28.335 8.272 4.775c3.212 1.852 7.312 1.524 10.191-.812 5.058-4.097 10.674-7.348 16.694-9.663z" fill="#000000" style="fill: rgb(255, 255, 255);"></path><path d="m256.005 233.906c26.244 0 47.595-21.351 47.595-47.595 0-18.104-10.526-34.915-26.816-42.829-3.728-1.812-8.215-.257-10.023 3.469-1.81 3.726-.257 8.213 3.469 10.023 11.332 5.505 18.371 16.746 18.371 29.337 0 17.973-14.622 32.595-32.595 32.595s-32.595-14.622-32.595-32.595c0-12.59 7.04-23.831 18.372-29.338 3.726-1.811 5.277-6.299 3.468-10.024-1.811-3.726-6.298-5.278-10.024-3.468-16.29 7.916-26.815 24.728-26.815 42.83-.002 26.245 21.349 47.595 47.593 47.595z" fill="#000000" style="fill: rgb(255, 255, 255);"></path><path d="m256.005 322.906c-23.417 0-42.469 19.052-42.469 42.47 0 23.417 19.052 42.469 42.469 42.469s42.469-19.052 42.469-42.469c0-23.418-19.052-42.47-42.469-42.47zm0 69.939c-15.146 0-27.469-12.322-27.469-27.469s12.322-27.47 27.469-27.47 27.469 12.323 27.469 27.47-12.322 27.469-27.469 27.469z" fill="#000000" style="fill: rgb(255, 255, 255);"></path><path d="m306.255 424.947h-20.859c-4.143 0-7.5 3.357-7.5 7.5s3.357 7.5 7.5 7.5h20.859c6.893 0 12.5 5.607 12.5 12.5v44.553h-62.719c-4.143 0-7.5 3.357-7.5 7.5s3.357 7.5 7.5 7.5h70.219c4.143 0 7.5-3.357 7.5-7.5v-52.053c0-15.163-12.337-27.5-27.5-27.5z" fill="#000000" style="fill: rgb(255, 255, 255);"></path><path d="m221.036 497h-27.781v-44.553c0-6.893 5.607-12.5 12.5-12.5h44.641c4.143 0 7.5-3.357 7.5-7.5s-3.357-7.5-7.5-7.5h-44.641c-15.163 0-27.5 12.337-27.5 27.5v52.053c0 4.143 3.357 7.5 7.5 7.5h35.281c4.143 0 7.5-3.357 7.5-7.5s-3.357-7.5-7.5-7.5z" fill="#000000" style="fill: rgb(255, 255, 255);"></path><path d="m109.459 239.261c-2.201-3.956-6.381-6.417-10.908-6.421-.004 0-.008 0-.012 0-4.522 0-8.701 2.452-10.907 6.399l-35.122 62.843c-2.187 3.911-2.138 8.555.13 12.419 2.268 3.865 6.296 6.173 10.777 6.173h70.078c4.477 0 8.503-2.304 10.772-6.162s2.323-8.496.148-12.407zm-41.772 66.413 30.848-55.195 30.702 55.195z" fill="#000000" style="fill: rgb(255, 255, 255);"></path><path d="m448.596 239.261h-59.938c-6.893 0-12.5 5.607-12.5 12.5v59.938c0 6.893 5.607 12.5 12.5 12.5h59.938c6.893 0 12.5-5.607 12.5-12.5v-59.938c0-6.893-5.607-12.5-12.5-12.5zm-2.5 69.938h-54.938v-54.938h54.938z" fill="#000000" style="fill: rgb(255, 255, 255);"></path><path d="m102.13 124.897c25.621 0 46.466-20.844 46.466-46.465s-20.845-46.466-46.466-46.466-46.466 20.846-46.466 46.467 20.845 46.464 46.466 46.464zm0-77.93c17.351 0 31.466 14.115 31.466 31.466 0 17.35-14.115 31.465-31.466 31.465s-31.466-14.116-31.466-31.465c0-17.351 14.116-31.466 31.466-31.466z" fill="#000000" style="fill: rgb(255, 255, 255);"></path><path d="m402.318 119.651 21.999 11.6c3.562 1.88 7.8 1.577 11.06-.787s4.862-6.299 4.184-10.268l-4.209-24.611 17.834-17.435c2.875-2.812 3.887-6.934 2.642-10.757s-4.49-6.558-8.467-7.137l-24.618-3.588-11.005-22.363c-1.779-3.617-5.388-5.864-9.42-5.864-4.031 0-7.64 2.247-9.418 5.862l-11.006 22.365-24.616 3.588c-3.979.579-7.224 3.313-8.469 7.137s-.233 7.945 2.643 10.758l17.833 17.434-4.209 24.611c-.679 3.969.925 7.903 4.184 10.268 1.84 1.333 3.989 2.011 6.154 2.011 1.672 0 3.353-.404 4.905-1.224zm-33.873-45.863 17.959-2.618c3.423-.499 6.377-2.65 7.902-5.752l8.011-16.28 8.014 16.284c1.528 3.101 4.481 5.249 7.902 5.749l17.957 2.617-13.01 12.719c-2.468 2.41-3.595 5.879-3.013 9.279l3.067 17.938-16.019-8.446c-1.534-.81-3.217-1.215-4.899-1.215s-3.364.405-4.896 1.214l-16.021 8.447 3.067-17.938c.582-3.4-.545-6.869-3.009-9.276z" fill="#000000" style="fill: rgb(255, 255, 255);"></path></g></svg>