<!-- icon666.com - MILLIONS vector ICONS FREE --><svg id="Capa_1" enable-background="new 0 0 512 512" viewBox="0 0 512 512" xmlns="http://www.w3.org/2000/svg"><g><path d="m200.31 196.9h-20.46v30h20.46c1.32 4.87 3.26 9.48 5.72 13.75l-14.48 14.48 21.21 21.22 14.49-14.49c4.27 2.47 8.88 4.41 13.75 5.72v20.46h30v-20.46c4.87-1.31 9.48-3.25 13.75-5.72l14.49 14.49 21.21-21.22-14.48-14.48c2.47-4.27 4.4-8.88 5.72-13.75h20.46v-30h-20.46c-1.32-4.87-3.25-9.49-5.72-13.76l14.48-14.48-21.21-21.21-14.49 14.48c-4.27-2.47-8.88-4.41-13.75-5.72v-20.46h-30v20.46c-4.87 1.31-9.48 3.25-13.75 5.72l-14.49-14.48-21.21 21.21 14.48 14.48c-2.46 4.27-4.4 8.89-5.72 13.76zm55.69-12.68c15.26 0 27.68 12.41 27.68 27.68 0 15.26-12.42 27.67-27.68 27.67s-27.68-12.41-27.68-27.67c0-15.27 12.42-27.68 27.68-27.68z" fill="#000000" style="fill: rgb(255, 255, 255);"></path><path d="m415.81 162.47 15.72-31.95c-24.2-36.03-59.2-64.24-100.33-79.95v32.51c36.11 16.52 65.89 44.56 84.61 79.39z" fill="#000000" style="fill: rgb(255, 255, 255);"></path><path d="m180.8 83.08v-32.51c-48.5 18.53-88.49 54.44-112.29 100.08 10.44 1.22 20.32 4.28 29.32 8.84 18.8-33.45 47.9-60.36 82.97-76.41z" fill="#000000" style="fill: rgb(255, 255, 255);"></path><path d="m327.42 414.71c8.035 6.869 14.662 14.835 19.88 23.9 47.57-22.88 85.3-63.05 105.01-112.31h-32.76c-18.95 39.47-51.78 71.06-92.13 88.41z" fill="#000000" style="fill: rgb(255, 255, 255);"></path><path d="m89.77 320.46c-9.35 3.61-19.48 5.67-30.06 5.85 19.7 49.26 57.43 89.42 104.99 112.3 5.218-9.065 11.845-17.031 19.88-23.9-42.31-18.2-76.36-52.07-94.81-94.25z" fill="#000000" style="fill: rgb(255, 255, 255);"></path><path d="m198.64 442.73c-9.94 10.87-16.06 25.41-16.06 41.25v28.02h146.84v-28.02c0-15.8-6.09-30.31-15.98-41.17-28.874 34.855-86.031 35.067-114.8-.08z" fill="#000000" style="fill: rgb(255, 255, 255);"></path><path d="m256 322.74c-23.66 0-42.84 19.18-42.84 42.84v30.75c0 23.66 19.18 42.84 42.84 42.84 23.66 0 42.84-19.18 42.84-42.84v-30.75c0-23.66-19.18-42.84-42.84-42.84z" fill="#000000" style="fill: rgb(255, 255, 255);"></path><ellipse cx="58.12" cy="238.18" rx="58.12" ry="58.12" transform="matrix(.924 -.383 .383 .924 -86.724 40.372)" fill="#000000" style="fill: rgb(255, 255, 255);"></ellipse><path d="m210.8 0h90.4v90.41h-90.4z" fill="#000000" style="fill: rgb(255, 255, 255);"></path><path d="m512 296.3-65.15-128.49-65.14 128.49z" fill="#000000" style="fill: rgb(255, 255, 255);"></path></g></svg>