<?xml version="1.0" encoding="UTF-8"?>
<!DOCTYPE svg PUBLIC "-//W3C//DTD SVG 1.1//EN" "http://www.w3.org/Graphics/SVG/1.1/DTD/svg11.dtd">
<svg xmlns="http://www.w3.org/2000/svg" version="1.1" width="100px" height="100px" style="shape-rendering:geometricPrecision; text-rendering:geometricPrecision; image-rendering:optimizeQuality; fill-rule:evenodd; clip-rule:evenodd" xmlns:xlink="http://www.w3.org/1999/xlink">
<g><path style="opacity:0.913" fill="#fefffe" d="M 58.5,5.5 C 70.2111,7.40215 81.5444,10.7355 92.5,15.5C 93.8182,25.7275 93.8182,35.8942 92.5,46C 90.5594,46.7429 88.7261,46.5762 87,45.5C 86.8313,38.1441 86.3313,30.8108 85.5,23.5C 77.7039,26.2654 69.8705,28.9321 62,31.5C 51.4986,28.2223 41.1652,24.5557 31,20.5C 30.2025,18.7412 30.3691,17.0745 31.5,15.5C 40.5986,12.1374 49.5986,8.80402 58.5,5.5 Z"/></g>
<g><path style="opacity:0.885" fill="#fefffe" d="M 41.5,27.5 C 48.4566,28.9845 55.2899,30.9845 62,33.5C 68.7101,30.9845 75.5434,28.9845 82.5,27.5C 83.0049,30.5212 83.6716,33.5212 84.5,36.5C 84.4712,38.0293 83.8045,39.196 82.5,40C 75.8513,42.7719 69.018,44.9385 62,46.5C 54.982,44.9385 48.1487,42.7719 41.5,40C 40.1955,39.196 39.5288,38.0293 39.5,36.5C 40.3284,33.5212 40.9951,30.5212 41.5,27.5 Z"/></g>
<g><path style="opacity:0.902" fill="#fefffe" d="M 14.5,49.5 C 31.8805,49.1807 49.2139,49.514 66.5,50.5C 67.1924,51.0253 67.6924,51.6919 68,52.5C 68.4998,62.1609 68.6665,71.8276 68.5,81.5C 49.5,81.5 30.5,81.5 11.5,81.5C 11.3335,71.8276 11.5002,62.1609 12,52.5C 13.045,51.6266 13.8783,50.6266 14.5,49.5 Z M 31.5,56.5 C 32.2389,56.369 32.9056,56.5357 33.5,57C 30.7974,60.038 27.7974,62.7046 24.5,65C 27.6881,67.4319 30.6881,70.0985 33.5,73C 33,73.1667 32.5,73.3333 32,73.5C 28.5112,70.6804 25.0112,67.847 21.5,65C 25.0247,62.302 28.3581,59.4686 31.5,56.5 Z M 40.5,56.5 C 41.5862,56.62 42.2528,57.2867 42.5,58.5C 41.6687,63.667 40.3353,68.667 38.5,73.5C 38.1667,73 37.8333,72.5 37.5,72C 38.8227,66.887 39.8227,61.7203 40.5,56.5 Z M 47.5,56.5 C 51.2907,59.1181 54.9574,61.9514 58.5,65C 55.2568,68.1978 51.7568,71.0312 48,73.5C 47.5,73.3333 47,73.1667 46.5,73C 49.7974,70.7046 52.7974,68.038 55.5,65C 53.0934,62.7152 50.5934,60.5486 48,58.5C 47.5357,57.9056 47.369,57.2389 47.5,56.5 Z"/></g>
<g><path style="opacity:0.914" fill="#fefffe" d="M 5.5,83.5 C 28.5,83.5 51.5,83.5 74.5,83.5C 75.0567,87.8884 73.3901,91.0551 69.5,93C 50.1667,93.6667 30.8333,93.6667 11.5,93C 7.34503,91.1893 5.34503,88.0226 5.5,83.5 Z"/></g>
</svg>
