<?xml version="1.0" encoding="UTF-8"?>
<!DOCTYPE svg PUBLIC "-//W3C//DTD SVG 1.1//EN" "http://www.w3.org/Graphics/SVG/1.1/DTD/svg11.dtd">
<svg xmlns="http://www.w3.org/2000/svg" version="1.1" width="100px" height="100px" style="shape-rendering:geometricPrecision; text-rendering:geometricPrecision; image-rendering:optimizeQuality; fill-rule:evenodd; clip-rule:evenodd" xmlns:xlink="http://www.w3.org/1999/xlink">
<g><path style="opacity:0.895" fill="#fefffe" d="M 45.5,3.5 C 48.1873,3.33591 50.854,3.50258 53.5,4C 58.7128,6.77325 64.0461,9.27325 69.5,11.5C 70.1924,12.0253 70.6924,12.6919 71,13.5C 71.6667,22.8333 71.6667,32.1667 71,41.5C 65.0868,44.5396 59.2534,47.7062 53.5,51C 50.8333,51.6667 48.1667,51.6667 45.5,51C 39.7466,47.7062 33.9132,44.5396 28,41.5C 27.3333,32.1667 27.3333,22.8333 28,13.5C 33.7825,10.027 39.6158,6.69365 45.5,3.5 Z M 47.5,8.5 C 53.5433,9.57173 59.2099,11.7384 64.5,15C 59.5,17.5 54.5,20 49.5,22.5C 44.5,20 39.5,17.5 34.5,15C 38.9811,12.9098 43.3144,10.7431 47.5,8.5 Z M 31.5,19.5 C 36.7183,22.0261 41.885,24.6928 47,27.5C 47.8303,33.5276 47.6636,39.5276 46.5,45.5C 41.4255,43.214 36.5922,40.5473 32,37.5C 31.5005,31.5092 31.3338,25.5092 31.5,19.5 Z"/></g>
<g><path style="opacity:0.968" fill="#fefffe" d="M 11.5,15.5 C 15.5,15.5 19.5,15.5 23.5,15.5C 23.5,16.8333 23.5,18.1667 23.5,19.5C 20.8127,19.3359 18.146,19.5026 15.5,20C 13.6667,20.5 12.5,21.6667 12,23.5C 11.3333,38.1667 11.3333,52.8333 12,67.5C 12.5,69.3333 13.6667,70.5 15.5,71C 38.1667,71.6667 60.8333,71.6667 83.5,71C 85.3333,70.5 86.5,69.3333 87,67.5C 87.6667,52.8333 87.6667,38.1667 87,23.5C 86.5,21.6667 85.3333,20.5 83.5,20C 80.1832,19.5017 76.8499,19.335 73.5,19.5C 73.5,18.1667 73.5,16.8333 73.5,15.5C 78.1785,15.3342 82.8452,15.5008 87.5,16C 89.3333,16.5 90.5,17.6667 91,19.5C 91.4999,36.8301 91.6666,54.1635 91.5,71.5C 93.5,71.5 95.5,71.5 97.5,71.5C 98.5715,76.589 96.9048,80.4224 92.5,83C 63.8333,83.6667 35.1667,83.6667 6.5,83C 2.09516,80.4224 0.42849,76.589 1.5,71.5C 3.5,71.5 5.5,71.5 7.5,71.5C 7.33339,54.1635 7.50006,36.8301 8,19.5C 8.68972,17.6498 9.85639,16.3164 11.5,15.5 Z M 31.5,19.5 C 31.3338,25.5092 31.5005,31.5092 32,37.5C 36.5922,40.5473 41.4255,43.214 46.5,45.5C 47.6636,39.5276 47.8303,33.5276 47,27.5C 41.885,24.6928 36.7183,22.0261 31.5,19.5 Z"/></g>
<g><path style="opacity:0.883" fill="#fefffe" d="M 35.5,51.5 C 36.8333,51.5 38.1667,51.5 39.5,51.5C 39.665,54.8499 39.4983,58.1832 39,61.5C 37.6487,63.019 36.1487,64.3523 34.5,65.5C 30.6378,63.1331 30.8045,60.7998 35,58.5C 35.4966,56.1902 35.6633,53.8568 35.5,51.5 Z"/></g>
<g><path style="opacity:0.765" fill="#fefffe" d="M 59.5,51.5 C 61.1667,51.5 62.8333,51.5 64.5,51.5C 63.5531,56.2225 64.8864,60.0558 68.5,63C 65.2103,66.3675 62.3769,65.8675 60,61.5C 59.5017,58.1832 59.335,54.8499 59.5,51.5 Z"/></g>
<g><path style="opacity:1" fill="#fefffe" d="M 47.5,55.5 C 48.8333,55.5 50.1667,55.5 51.5,55.5C 51.5,59.5 51.5,63.5 51.5,67.5C 50.1667,67.5 48.8333,67.5 47.5,67.5C 47.5,63.5 47.5,59.5 47.5,55.5 Z"/></g>
</svg>
