<!-- icon666.com - MILLIONS vector ICONS FREE --><svg id="Capa_1" enable-background="new 0 0 511.978 511.978" viewBox="0 0 511.978 511.978" xmlns="http://www.w3.org/2000/svg"><g><path d="m178.316 439.954c-12.317-9.474-24.923-5.686-37.118-2.02-4.553 1.369-9.262 2.784-14.137 3.597-18.119 3.023-39.212-.07-44.048-17.804-1.726-6.513.596-11.81 4.326-17.534 5.992-10.484 3.422-21.342-2.396-25.389-2.354-1.526-3.697-2.134-7.718-3.953-1.203-.627-3.223-1.97-3.229-3.911-.004-1.397 1.056-2.827 2.765-3.732 2.432-1.287 3.963-3.802 3.991-6.553.027-2.75-1.453-5.296-3.857-6.632-.665-.369-3.499-2.217-5.218-4.508-1.696-2.262-1.564-2.676-.061-3.987 9.805-8.551 8.192-23.081 5.695-30.318-.915-2.651-3.232-4.57-6.008-4.975l-17.411-2.54c-3.352-.489-6.604-1.752-9.404-3.654-2.753-1.869-4.396-4.969-4.396-8.295 0-2.446.885-4.794 2.49-6.61 12.072-13.647 21.284-29.945 28.162-49.823 1.092-3.157 2.073-6.412 2.916-9.675 2.031-7.868.826-16.328-3.306-23.21-2.224-3.702-4.615-9.407-3.384-15.563.988-4.941 2.615-8.33 4.5-12.254 2.81-5.851 5.995-12.483 6.739-24.085 2.136-33.268 8.351-48.224 19.074-64.184 7.292-10.854 15.996-20.851 25.87-29.715 3.082-2.767 3.337-7.509.57-10.591-2.768-3.082-7.508-3.338-10.592-.571-10.795 9.692-20.316 20.63-28.3 32.512-11.902 17.715-19.251 35.108-21.592 71.588-.559 8.695-2.752 13.263-5.292 18.552-2.029 4.225-4.329 9.014-5.688 15.805-2.172 10.859 1.647 20.256 5.232 26.227 2.077 3.458 2.675 7.738 1.643 11.739-.742 2.875-1.606 5.741-2.568 8.521-6.224 17.989-14.474 32.64-25.223 44.791-4.033 4.562-6.254 10.438-6.254 16.547 0 8.301 4.101 16.042 10.971 20.706 4.666 3.167 10.082 5.271 15.664 6.085l12.304 1.794c.422 3.419.246 7.692-2.274 9.89-7.684 6.701-8.462 15.782-2.08 24.292.703.936 1.456 1.805 2.224 2.602-1.879 2.958-2.915 6.355-2.904 9.869.021 7.072 4.243 13.488 11.29 17.164 1.247.654 3.154 1.466 5.309 2.487.235.992.347 3.266-1.28 6.114-3.66 6.235-9.323 14.787-5.773 28.923 5.16 18.924 22.837 29.888 46.644 29.887 8.4.167 21.002-2.124 30.33-5.261 11.457-3.444 17.711-5.027 23.653-.456 8.942 6.879 18.228 18.54 19.296 52.866.126 4.061 3.457 7.267 7.492 7.267.078 0 .158-.001.237-.003 4.14-.129 7.392-3.59 7.263-7.729-1.259-40.579-13.415-55.27-25.139-64.29z" fill="#000000" style="fill: rgb(255, 255, 255);"></path><path d="m437.747 69.098c-31.374-33.305-70.619-54.872-116.646-64.104-37.8-7.583-80.051-6.514-122.185 3.088-20.416 4.653-39.371 12.036-56.336 21.942-3.577 2.088-4.784 6.681-2.695 10.258 2.089 3.578 6.684 4.783 10.258 2.695 15.647-9.136 33.179-15.957 52.107-20.271 52.633-11.995 151.799-20.584 224.579 56.675 63.8 67.726 59.847 176.026-9.397 257.515-14.423 16.973-21.521 38.369-19.989 60.248.329 4.694.789 9.533 1.369 14.382.456 3.811 3.693 6.61 7.438 6.61.298 0 .599-.018.9-.054 4.113-.492 7.048-4.225 6.557-8.337-.552-4.606-.988-9.198-1.301-13.649-1.257-17.944 4.588-35.519 16.456-49.486 36.101-42.483 56.685-94.011 57.958-145.09 1.258-50.465-16.17-97.494-49.073-132.422z" fill="#000000" style="fill: rgb(255, 255, 255);"></path><path d="m419.63 443.725c-.913-4.04-4.93-6.578-8.968-5.665-4.04.912-6.576 4.927-5.665 8.967 4.434 19.64 10.577 39.864 18.26 60.109 1.137 2.997 3.987 4.841 7.013 4.841.885 0 1.784-.158 2.66-.49 3.872-1.47 5.82-5.8 4.351-9.673-7.434-19.588-13.373-39.133-17.651-58.089z" fill="#000000" style="fill: rgb(255, 255, 255);"></path><path d="m430.957 269.749c1.795-1.794 2.784-4.181 2.784-6.719s-.989-4.925-2.782-6.717l-6.005-6.005c3.803-6.926 6.832-14.24 9.041-21.831h8.494c5.238 0 9.5-4.262 9.5-9.5v-42c0-5.238-4.262-9.5-9.5-9.5h-8.494c-2.21-7.592-5.238-14.906-9.041-21.831l6.003-6.003c1.795-1.794 2.784-4.181 2.784-6.719s-.989-4.925-2.782-6.717l-29.698-29.699c-3.705-3.704-9.73-3.704-13.436 0l-6.005 6.005c-6.925-3.802-14.239-6.832-21.831-9.042v-8.494c0-5.238-4.262-9.5-9.5-9.5h-42c-5.238 0-9.5 4.262-9.5 9.5v8.494c-7.593 2.21-14.906 5.239-21.831 9.042l-6.005-6.005c-3.705-3.704-9.73-3.704-13.436 0l-29.696 29.697c-1.795 1.794-2.784 4.181-2.784 6.719s.989 4.925 2.782 6.717l6.005 6.005c-3.803 6.926-6.832 14.24-9.041 21.831h-8.494c-5.238 0-9.5 4.262-9.5 9.5v13.5h-14v-57.5c0-12.407-10.094-22.5-22.5-22.5h-6.548c-3.274-11.528-13.889-20-26.452-20-15.163 0-27.5 12.336-27.5 27.5s12.337 27.5 27.5 27.5c12.563 0 23.178-8.472 26.452-20h6.548c4.136 0 7.5 3.364 7.5 7.5v57.5h-14.048c-3.274-11.528-13.889-20-26.452-20-15.163 0-27.5 12.336-27.5 27.5s12.337 27.5 27.5 27.5c12.563 0 23.178-8.472 26.452-20h14.048v57.5c0 4.136-3.364 7.5-7.5 7.5h-6.548c-3.274-11.528-13.889-20-26.452-20-15.163 0-27.5 12.336-27.5 27.5s12.337 27.5 27.5 27.5c12.563 0 23.178-8.472 26.452-20h6.548c12.406 0 22.5-10.093 22.5-22.5v-57.5h14v13.5c0 5.238 4.262 9.5 9.5 9.5h8.494c2.21 7.592 5.238 14.906 9.041 21.831l-6.003 6.003c-1.795 1.794-2.784 4.181-2.784 6.719s.989 4.925 2.782 6.717l29.698 29.699c3.705 3.704 9.73 3.704 13.436 0l6.005-6.005c6.925 3.802 14.239 6.832 21.831 9.042v8.494c0 5.238 4.262 9.5 9.5 9.5h42c5.238 0 9.5-4.262 9.5-9.5v-8.494c7.593-2.21 14.906-5.239 21.831-9.042l6.005 6.005c3.705 3.704 9.73 3.704 13.436 0zm-293.468-139.273c-6.893 0-12.5-5.607-12.5-12.5s5.607-12.5 12.5-12.5 12.5 5.607 12.5 12.5-5.607 12.5-12.5 12.5zm0 80c-6.893 0-12.5-5.607-12.5-12.5s5.607-12.5 12.5-12.5 12.5 5.607 12.5 12.5-5.607 12.5-12.5 12.5zm0 80c-6.893 0-12.5-5.607-12.5-12.5s5.607-12.5 12.5-12.5 12.5 5.607 12.5 12.5-5.607 12.5-12.5 12.5zm251.955-10.625c-3.088-3.089-7.865-3.671-11.618-1.414-7.966 4.796-16.585 8.366-25.617 10.61-4.251 1.056-7.22 4.845-7.22 9.215v7.213h-31v-7.213c0-4.37-2.969-8.16-7.219-9.215-9.033-2.245-17.652-5.814-25.62-10.612-3.752-2.256-8.528-1.676-11.614 1.413l-5.101 5.101-21.92-21.92 5.099-5.099c3.091-3.088 3.672-7.866 1.414-11.618-4.796-7.965-8.366-16.584-10.612-25.622-1.058-4.248-4.847-7.214-9.214-7.214h-7.213v-31h7.213c4.367 0 8.156-2.967 9.215-7.218 2.245-9.034 5.815-17.653 10.611-25.62 2.258-3.751 1.677-8.529-1.412-11.615l-5.101-5.101 21.92-21.92 5.099 5.099c3.088 3.09 7.866 3.672 11.618 1.414 7.966-4.796 16.585-8.366 25.617-10.61 4.251-1.056 7.22-4.845 7.22-9.215v-7.213h31v7.213c0 4.37 2.969 8.16 7.219 9.215 9.033 2.245 17.652 5.814 25.62 10.612 3.751 2.255 8.527 1.675 11.614-1.413l5.101-5.101 21.92 21.92-5.099 5.099c-3.091 3.088-3.672 7.866-1.414 11.618 4.796 7.965 8.366 16.584 10.612 25.622 1.058 4.248 4.847 7.214 9.214 7.214h7.213v31h-7.213c-4.367 0-8.156 2.967-9.215 7.218-2.245 9.034-5.815 17.653-10.611 25.62-2.258 3.751-1.677 8.529 1.412 11.615l5.101 5.101-21.92 21.92z" fill="#000000" style="fill: rgb(255, 255, 255);"></path><path d="m370.143 146.706c-2.929 2.929-2.929 7.678.001 10.606 10.863 10.861 16.846 25.302 16.846 40.664 0 31.706-25.794 57.5-57.5 57.5s-57.5-25.794-57.5-57.5 25.794-57.5 57.5-57.5c4.872 0 9.709.609 14.375 1.81 4.014 1.033 8.101-1.384 9.133-5.394 1.032-4.011-1.383-8.1-5.395-9.132-5.887-1.515-11.981-2.283-18.113-2.283-39.977 0-72.5 32.523-72.5 72.5s32.523 72.5 72.5 72.5 72.5-32.523 72.5-72.5c0-19.369-7.543-37.577-21.24-51.271-2.932-2.931-7.679-2.929-10.607 0z" fill="#000000" style="fill: rgb(255, 255, 255);"></path><path d="m329.489 225.476c-4.036 0-7.92-.852-11.544-2.531-3.757-1.743-8.217-.106-9.958 3.651-1.742 3.758-.106 8.217 3.651 9.958 5.615 2.602 11.621 3.921 17.851 3.921 23.435 0 42.5-19.065 42.5-42.5s-19.065-42.5-42.5-42.5-42.5 19.065-42.5 42.5c0 1.922.13 3.855.387 5.747.556 4.105 4.335 6.979 8.438 6.425 4.104-.556 6.981-4.334 6.425-8.439-.166-1.227-.25-2.483-.25-3.733 0-15.164 12.337-27.5 27.5-27.5s27.5 12.336 27.5 27.5-12.337 27.501-27.5 27.501z" fill="#000000" style="fill: rgb(255, 255, 255);"></path></g></svg>