<!-- icon666.com - MILLIONS vector ICONS FREE --><svg id="Layer_1" enable-background="new 0 0 512 512" viewBox="0 0 512 512" xmlns="http://www.w3.org/2000/svg"><path d="m330.5 142.3-13.4 7.7 6.1 10.5c1.7 2.9 1.1 6.7-1.5 9-6.9 6-13.9 14.6-17.6 22.8-1.4 3.2-4.9 5-8.4 4.1l-11.8-3.2-4 14.9 11.7 3.1c3.3.9 5.6 3.9 5.4 7.4-.7 9.2.5 19.9 3.7 28.7 1.3 3.2 0 7-3.1 8.8l-10.5 6.1 7.7 13.4 10.5-6.1c2.9-1.7 6.7-1.1 9 1.5 6 6.9 14.6 13.9 22.8 17.6 3.2 1.4 5 4.9 4.1 8.4l-3.1 11.8 14.9 4 3.1-11.7c.8-3.3 3.9-5.6 7.4-5.4 9.2.7 19.9-.5 28.7-3.7 3.2-1.3 7 0 8.8 3.1l6.1 10.6 13.3-7.7-6.1-10.5c-1.7-2.9-1.1-6.7 1.5-9 6.9-6 13.8-14.6 17.6-22.8 1.4-3.2 4.9-5 8.4-4.1l11.8 3.1 4-14.9-11.7-3.1c-3.3-.8-5.6-3.9-5.3-7.4.7-9.9-.5-19.5-3.8-28.9-1.1-3.1.2-6.8 3.2-8.5l10.5-6.1-7.7-13.4-10.2 5.9c-2.9 1.9-6.9 1.4-9.2-1.3-6-6.9-14.6-13.8-22.9-17.6-3.2-1.4-5-4.9-4.1-8.4l3.2-11.8-14.9-4-3.1 11.7c-.9 3.3-3.9 5.6-7.4 5.3-9.3-.7-20 .5-28.7 3.7-3.2 1.2-7 0-8.8-3.1zm47.3 48c-18.7-5-37.8 6-42.7 24.7-5 18.7 6 37.8 24.7 42.7 18.6 5 37.7-6.1 42.7-24.7 4.9-18.6-6.1-37.7-24.7-42.7zm-33.6-8.8c23.5-13.6 53.6-5.6 67.1 18 13.6 23.5 5.6 53.5-18 67.1-23.5 13.6-53.5 5.5-67.1-18s-5.5-53.6 18-67.1zm128.3 5.4c-1.1-3.1.5-6.5 3.6-7.6s6.5.5 7.6 3.6c17.4 48.5 2.4 102.7-37.4 135.4-17.9 14.7-39.9 24.3-63.4 27l6.1 3.7c2.8 1.7 3.7 5.4 2 8.2s-5.4 3.7-8.2 2l-23.3-14.1c-4-2.4-3.8-8.2.2-10.3l23.9-13.1c6.8-3.7 13 6.5 5.5 10.7 54.6-10.3 93.5-60 89.5-116.1-.7-10.3-2.8-20.1-6.1-29.4zm-26.6-41.6c-2.4-2.3-2.4-6.1-.1-8.5s6.1-2.4 8.5-.1c6.4 6.3 11.9 13 16.8 20.4 1.8 2.8 1 6.5-1.8 8.3-2.7 1.8-6.5 1-8.3-1.7-4.4-6.6-9.5-12.9-15.1-18.4zm-33.1-22.3c-3-1.3-4.4-4.8-3.1-7.9 1.3-3 4.8-4.4 7.9-3.1 5.2 2.2 10.4 5 15.3 8 2.8 1.7 3.7 5.4 2 8.2s-5.4 3.7-8.2 2c-4.6-2.8-9.1-5.1-13.9-7.2zm-135.4 313.3c-2.4-43.1-.8-81 13.8-110.6 5.9 3.9 12.2 7.4 18.8 10.3 3 1.3 6.5-.1 7.9-3.1 1.3-3-.1-6.6-3.1-7.9-47.4-20.7-74.3-71.9-63.9-123.1 9.1-44.6 44.1-77.9 87.4-86.1-3.1 1.7-4.2 5.3-2.6 8.2s5.2 3.9 8.1 2.4l23.9-13.1c4-2.2 4.2-7.9.2-10.3l-23.3-14.1c-2.8-1.7-6.5-.8-8.2 2s-.8 6.5 2 8.2l6.1 3.7c-14.6 1.7-28.6 6.1-41.5 12.7-32.8-33.5-80.4-44-126.2-38.4-17.1 2.1-34.3 6.5-51 13-27.5 10.7-55.1 40.7-64.9 68.1-6.8 19.2-10.5 36.5-6.7 56.8 2.6 13.7 4.6 17.3-5.1 31.4-7.5 11-16.8 22.8-23.4 34.4-9.2 16-3.3 17.4 7 21.4 12.7 4.9 27.6 10.7 28.4 33.4.3 6.3-.1 12.1-.5 17.5-.7 10.9-1.3 20.2 4 27.2 6.4 8.4 20.9 7.3 32 7.8 7.7.3 14.7.6 22.3 1.4 29.3 3 34 27.7 36.5 46.7h122zm-109.6-325.3h-11.3v8.8c.2 2.9-1.9 5.6-4.9 6.2-6.8 1.3-15.1 4.5-20.7 8.5-2.4 1.8-5.8 1.6-7.9-.5l-6.5-6.5-8 8 6.5 6.5c2 2 2.4 5.2.7 7.6-3.9 5.6-7.6 13.9-8.6 20.6-.3 3-2.9 5.3-6 5.3h-9.1v11.3h9.2c2.8 0 5.4 2 5.9 4.9 1.3 6.8 4.5 15.1 8.5 20.7 1.8 2.4 1.6 5.8-.5 7.9l-6.5 6.5 8 8 6.5-6.5c2-2 5.2-2.4 7.6-.7 5.6 3.8 13.9 7.6 20.6 8.6 3 .4 5.3 2.9 5.3 6v9.2h11.3v-9.2c0-2.8 2-5.3 4.9-5.9 6.8-1.3 15.2-4.5 20.7-8.5 2.4-1.8 5.8-1.7 7.9.5l6.5 6.5 8-8-6.5-6.5c-2-2-2.4-5.2-.7-7.6 2.1-3.1 3.9-6.5 5.4-10.1 1.4-3.3 2.5-6.9 3.2-10.5.4-3 2.9-5.3 6-5.3h9.2v-11.3h-9.2c-2.8 0-5.3-2-5.9-4.9-1.3-6.8-4.5-15.1-8.5-20.7-1.8-2.4-1.7-5.8.5-7.9l6.5-6.5-8-8-6.5 6.5c-2 2-5.2 2.4-7.6.7-5.6-3.9-13.9-7.6-20.6-8.6-3-.4-5.3-2.9-5.3-6v-9.1zm-17.3-12h23.3c3.3 0 6 2.7 6 6v10.4c5.8 1.6 11.3 3.9 16.4 6.8l7.4-7.4c2.4-2.3 6.2-2.3 8.5 0l16.5 16.5c2.4 2.3 2.4 6.1 0 8.5l-7.3 7.3c2.9 5.1 5.2 10.7 6.8 16.4h10.4c3.3 0 6 2.7 6 6v23.3c0 3.3-2.7 6-6 6h-10.5l-2.9 8.4c-1.1 2.7-2.5 5.4-3.9 8l7.3 7.4c2.4 2.4 2.4 6.2 0 8.5l-16.5 16.5c-2.3 2.4-6.1 2.4-8.5 0l-7.4-7.3c-5.1 2.9-10.6 5.2-16.4 6.8v10.4c0 3.3-2.7 6-6 6h-23.3c-3.3 0-6-2.7-6-6v-10.5c-5.8-1.5-11.3-3.8-16.4-6.8l-7.3 7.3c-2.4 2.4-6.2 2.4-8.5 0l-16.5-16.5c-2.3-2.3-2.3-6.1 0-8.5l7.4-7.4c-2.9-5.1-5.2-10.6-6.8-16.4h-10.3c-3.3 0-6-2.7-6-6v-23.3c0-3.3 2.7-6 6-6h10.4c1.6-5.8 3.9-11.3 6.8-16.4l-7.4-7.4c-2.3-2.4-2.3-6.2 0-8.5l16.5-16.5c2.4-2.3 6.2-2.3 8.5 0l7.3 7.4c5.1-2.9 10.7-5.3 16.4-6.8v-10.2c.1-3.3 2.7-6 6-6zm30.8 63.1c-17-17-46.1-4.9-46.1 19.1s29.2 36.1 46.1 19.1c10.6-10.6 10.6-27.7 0-38.2zm-19.1-19.9c21.6 0 39 17.5 39 39 0 21.6-17.5 39-39 39s-39-17.5-39-39c0-21.6 17.4-39 39-39z" fill="#000000" style="fill: rgb(255, 255, 255);"></path></svg>