<?xml version="1.0" encoding="UTF-8"?>
<!DOCTYPE svg PUBLIC "-//W3C//DTD SVG 1.1//EN" "http://www.w3.org/Graphics/SVG/1.1/DTD/svg11.dtd">
<svg xmlns="http://www.w3.org/2000/svg" version="1.1" width="100px" height="100px" style="shape-rendering:geometricPrecision; text-rendering:geometricPrecision; image-rendering:optimizeQuality; fill-rule:evenodd; clip-rule:evenodd" xmlns:xlink="http://www.w3.org/1999/xlink">
<g><path style="opacity:0.722" fill="#fefffe" d="M 48.5,1.5 C 78.0009,4.00046 94.3342,20.0005 97.5,49.5C 94.5,78.5 78.5,94.5 49.5,97.5C 20.5,94.5 4.5,78.5 1.5,49.5C 4.46715,20.8676 20.1338,4.86763 48.5,1.5 Z M 46.5,5.5 C 58.6031,5.4777 69.2698,9.31103 78.5,17C 75.9518,19.8851 73.1185,22.3851 70,24.5C 55.7636,14.9237 41.7636,15.257 28,25.5C 24.7407,22.9452 22.4074,19.9452 21,16.5C 28.5774,10.4555 37.0774,6.78882 46.5,5.5 Z M 16.5,20.5 C 19.679,22.8458 22.3456,25.6791 24.5,29C 14.9237,43.2364 15.257,57.2364 25.5,71C 22.9841,73.6833 20.3174,76.1833 17.5,78.5C 1.93221,59.5071 1.59887,40.1737 16.5,20.5 Z M 80.5,20.5 C 85.0763,23.5918 88.243,27.9252 90,33.5C 95.6003,49.9631 92.9337,64.9631 82,78.5C 79.1149,75.9518 76.6149,73.1185 74.5,70C 84.0763,55.7636 83.743,41.7636 73.5,28C 76.0386,25.6303 78.3719,23.1303 80.5,20.5 Z M 44.5,21.5 C 68.9236,22.0847 79.4236,34.418 76,58.5C 68.8741,73.8128 57.0407,79.6462 40.5,76C 25.1872,68.8741 19.3538,57.0407 23,40.5C 26.9482,30.3775 34.1149,24.0441 44.5,21.5 Z M 47.5,34.5 C 48.8333,34.5 50.1667,34.5 51.5,34.5C 51.5,43.5 51.5,52.5 51.5,61.5C 50.1667,61.5 48.8333,61.5 47.5,61.5C 47.5,52.5 47.5,43.5 47.5,34.5 Z M 62.5,42.5 C 63.8333,42.5 65.1667,42.5 66.5,42.5C 66.5,48.8333 66.5,55.1667 66.5,61.5C 65.1667,61.5 63.8333,61.5 62.5,61.5C 62.5,55.1667 62.5,48.8333 62.5,42.5 Z M 32.5,50.5 C 33.8333,50.5 35.1667,50.5 36.5,50.5C 36.5,54.1667 36.5,57.8333 36.5,61.5C 35.1667,61.5 33.8333,61.5 32.5,61.5C 32.5,57.8333 32.5,54.1667 32.5,50.5 Z M 70.5,73.5 C 74.0454,75.8565 76.5454,78.8565 78,82.5C 58.6922,97.2966 39.5256,97.13 20.5,82C 23.0482,79.1149 25.8815,76.6149 29,74.5C 43.1804,84.0922 57.0137,83.7589 70.5,73.5 Z"/></g>
<g><path style="opacity:0.735" fill="#fefffe" d="M 44.5,30.5 C 48.1064,30.2108 51.6064,30.5442 55,31.5C 55.6667,42.1667 55.6667,52.8333 55,63.5C 51.3333,66.1667 47.6667,66.1667 44,63.5C 43.1909,52.4236 43.3575,41.4236 44.5,30.5 Z M 47.5,34.5 C 47.5,43.5 47.5,52.5 47.5,61.5C 48.8333,61.5 50.1667,61.5 51.5,61.5C 51.5,52.5 51.5,43.5 51.5,34.5C 50.1667,34.5 48.8333,34.5 47.5,34.5 Z"/></g>
<g><path style="opacity:0.721" fill="#fefffe" d="M 59.5,38.5 C 62.5184,38.3354 65.5184,38.502 68.5,39C 69,39.5 69.5,40 70,40.5C 70.6667,48.1667 70.6667,55.8333 70,63.5C 66.6904,65.6626 63.1904,65.9959 59.5,64.5C 58.198,55.7743 58.198,47.1076 59.5,38.5 Z M 62.5,42.5 C 62.5,48.8333 62.5,55.1667 62.5,61.5C 63.8333,61.5 65.1667,61.5 66.5,61.5C 66.5,55.1667 66.5,48.8333 66.5,42.5C 65.1667,42.5 63.8333,42.5 62.5,42.5 Z"/></g>
<g><path style="opacity:0.727" fill="#fefffe" d="M 29.5,46.5 C 33.1064,46.2108 36.6064,46.5442 40,47.5C 40.8299,53.1959 40.6632,58.8625 39.5,64.5C 35.8096,65.9959 32.3096,65.6626 29,63.5C 28.2153,57.7507 28.3819,52.084 29.5,46.5 Z M 32.5,50.5 C 32.5,54.1667 32.5,57.8333 32.5,61.5C 33.8333,61.5 35.1667,61.5 36.5,61.5C 36.5,57.8333 36.5,54.1667 36.5,50.5C 35.1667,50.5 33.8333,50.5 32.5,50.5 Z"/></g>
</svg>
