<?xml version="1.0" encoding="UTF-8"?>
<!DOCTYPE svg PUBLIC "-//W3C//DTD SVG 1.1//EN" "http://www.w3.org/Graphics/SVG/1.1/DTD/svg11.dtd">
<svg xmlns="http://www.w3.org/2000/svg" version="1.1" width="100px" height="100px" style="shape-rendering:geometricPrecision; text-rendering:geometricPrecision; image-rendering:optimizeQuality; fill-rule:evenodd; clip-rule:evenodd" xmlns:xlink="http://www.w3.org/1999/xlink">
<g><path style="opacity:0.832" fill="#fefffe" d="M 47.5,2.5 C 57.2684,2.43869 65.9351,5.43869 73.5,11.5C 73.8715,7.61881 75.8715,5.78547 79.5,6C 97.2572,25.4353 99.0906,46.2687 85,68.5C 76.7244,78.2211 66.2244,83.5544 53.5,84.5C 53.5,85.8333 53.5,87.1667 53.5,88.5C 56.6492,88.2114 59.6492,88.7114 62.5,90C 64.229,91.7889 64.8957,93.9556 64.5,96.5C 54.5,96.5 44.5,96.5 34.5,96.5C 34.1043,93.9556 34.771,91.7889 36.5,90C 39.3508,88.7114 42.3508,88.2114 45.5,88.5C 45.5,87.1667 45.5,85.8333 45.5,84.5C 38.3001,84.3227 31.6335,82.3227 25.5,78.5C 24.914,78.7093 24.414,79.0426 24,79.5C 23.5466,82.8404 23.0466,86.1738 22.5,89.5C 22.4371,91.4809 23.1038,93.1476 24.5,94.5C 24.2907,95.086 23.9574,95.586 23.5,96C 16.1667,95.3333 8.83333,95.3333 1.5,96C 0.94149,95.2753 0.608156,94.4419 0.5,93.5C 3.97425,77.3742 5.47425,61.0409 5,44.5C 6.91621,43.0722 9.08288,42.0722 11.5,41.5C 13.0301,18.9658 25.0301,5.96576 47.5,2.5 Z M 46.5,5.5 C 49.1873,5.33591 51.854,5.50258 54.5,6C 51.1131,10.8331 52.1131,14.1664 57.5,16C 59.4049,17.8153 61.0716,19.8153 62.5,22C 54.203,26.5596 52.8697,32.5596 58.5,40C 61.8931,40.7977 65.2265,41.7977 68.5,43C 67.8333,45 67.1667,47 66.5,49C 70.2802,53.0978 73.6135,57.4312 76.5,62C 73.9634,64.872 71.1301,67.372 68,69.5C 67.8893,66.0559 66.2226,63.7225 63,62.5C 61.8644,59.9036 61.031,57.237 60.5,54.5C 54.3811,56.1609 48.3811,57.9942 42.5,60C 39.0586,61.3184 37.7253,63.8184 38.5,67.5C 36.0628,67.7563 33.7294,68.4229 31.5,69.5C 29.8333,68.3333 28.1667,67.1667 26.5,66C 30.6328,63.3693 34.6328,60.536 38.5,57.5C 39.3142,55.2338 39.8142,52.9005 40,50.5C 41.6349,49.2744 43.1349,47.941 44.5,46.5C 42.3501,43.8494 40.0168,41.3494 37.5,39C 42.9352,37.2306 46.7685,33.7306 49,28.5C 48.4336,20.8395 47.6003,13.1728 46.5,5.5 Z M 78.5,14.5 C 88.0704,25.1249 90.9037,37.4582 87,51.5C 76.582,75.7916 58.7487,83.9582 33.5,76C 31.0038,74.9196 28.6705,73.5862 26.5,72C 24.9926,71.1627 24.4926,69.9961 25,68.5C 43.7494,81.4583 61.4161,80.125 78,64.5C 87.6797,50.9863 89.013,36.653 82,21.5C 80.8589,19.3911 79.3589,17.5578 77.5,16C 78.056,15.6174 78.3893,15.1174 78.5,14.5 Z M 20.5,20.5 C 21.1386,21.0968 21.472,21.9302 21.5,23C 20.3918,26.8212 19.3918,30.6545 18.5,34.5C 17.5,34.5 16.5,34.5 15.5,34.5C 16.6025,29.629 18.2692,24.9624 20.5,20.5 Z M 19.5,35.5 C 22.4309,37.0908 25.0976,39.0908 27.5,41.5C 26.6534,44.5539 25.6534,47.5539 24.5,50.5C 24.8975,45.2501 22.5642,42.5835 17.5,42.5C 18.1667,40.1667 18.8333,37.8333 19.5,35.5 Z M 13.5,39.5 C 16.0009,39.5109 16.1676,40.1776 14,41.5C 13.5357,40.9056 13.369,40.2389 13.5,39.5 Z M 29.5,43.5 C 31.7327,45.2168 31.7327,47.2168 29.5,49.5C 28.4808,47.5405 28.4808,45.5405 29.5,43.5 Z M 7.5,45.5 C 8.5,45.5 9.5,45.5 10.5,45.5C 10.9059,47.1092 10.9059,48.4425 10.5,49.5C 8.45014,48.9234 7.45014,47.5901 7.5,45.5 Z M 15.5,45.5 C 17.288,45.2148 18.9547,45.5481 20.5,46.5C 19.1369,47.8928 18.3036,49.5595 18,51.5C 16.5,50 15,48.5 13.5,47C 14.4158,46.7216 15.0825,46.2216 15.5,45.5 Z M 12.5,51.5 C 14.3437,52.1603 16.0104,53.1603 17.5,54.5C 21.8416,53.1577 26.175,52.8244 30.5,53.5C 25.362,56.1236 20.0286,56.7902 14.5,55.5C 13.2949,54.4231 12.6282,53.0898 12.5,51.5 Z M 7.5,52.5 C 9.66979,53.8382 11.3365,55.6716 12.5,58C 14.3921,58.9734 16.3921,59.6401 18.5,60C 14.8484,60.4986 11.1817,60.6653 7.5,60.5C 7.5,57.8333 7.5,55.1667 7.5,52.5 Z M 25.5,57.5 C 26.2389,57.369 26.9056,57.5357 27.5,58C 25.2154,63.8803 24.5488,63.7137 25.5,57.5 Z M 13.5,68.5 C 14.6872,70.7402 15.3538,73.2402 15.5,76C 14.8818,82.3535 13.7151,88.5202 12,94.5C 11.077,92.9656 10.577,91.299 10.5,89.5C 12.3085,82.604 13.3085,75.604 13.5,68.5 Z M 47.5,85.5 C 48.8333,85.5 50.1667,85.5 51.5,85.5C 51.5,86.5 51.5,87.5 51.5,88.5C 50.1667,88.5 48.8333,88.5 47.5,88.5C 47.5,87.5 47.5,86.5 47.5,85.5 Z"/></g>
</svg>
