<?xml version="1.0" encoding="UTF-8"?>
<!DOCTYPE svg PUBLIC "-//W3C//DTD SVG 1.1//EN" "http://www.w3.org/Graphics/SVG/1.1/DTD/svg11.dtd">
<svg xmlns="http://www.w3.org/2000/svg" version="1.1" width="521px" height="512px" style="shape-rendering:geometricPrecision; text-rendering:geometricPrecision; image-rendering:optimizeQuality; fill-rule:evenodd; clip-rule:evenodd" xmlns:xlink="http://www.w3.org/1999/xlink">
<g><path style="opacity:1" fill="#fefefd" d="M -0.5,-0.5 C 173.167,-0.5 346.833,-0.5 520.5,-0.5C 520.5,170.167 520.5,340.833 520.5,511.5C 346.833,511.5 173.167,511.5 -0.5,511.5C -0.5,340.833 -0.5,170.167 -0.5,-0.5 Z"/></g>
<g><path style="opacity:1" fill="#f6947a" d="M 130.5,42.5 C 130.631,43.3764 130.298,44.0431 129.5,44.5C 125.896,45.8008 122.563,47.4675 119.5,49.5C 122.345,45.9089 126.012,43.5756 130.5,42.5 Z"/></g>
<g><path style="opacity:1" fill="#f8baa8" d="M 390.5,29.5 C 392.967,29.7549 394.967,30.7549 396.5,32.5C 394.033,32.2451 392.033,31.2451 390.5,29.5 Z"/></g>
<g><path style="opacity:1" fill="#f79c86" d="M 199.5,13.5 C 199.389,14.1174 199.056,14.6174 198.5,15C 196.527,15.4955 194.527,15.6621 192.5,15.5C 194.657,14.5933 196.99,13.9267 199.5,13.5 Z"/></g>
<g><path style="opacity:1" fill="#f9cec0" d="M 305.5,6.5 C 305.5,6.16667 305.5,5.83333 305.5,5.5C 311.82,5.39958 317.82,6.39958 323.5,8.5C 317.534,7.55261 311.534,6.88594 305.5,6.5 Z"/></g>
<g><path style="opacity:1" fill="#f16b4e" d="M 256.5,5.5 C 272.854,5.26021 289.188,5.59354 305.5,6.5C 311.534,6.88594 317.534,7.55261 323.5,8.5C 346.629,13.323 368.963,20.323 390.5,29.5C 392.033,31.2451 394.033,32.2451 396.5,32.5C 440.408,54.575 477.575,84.9084 508,123.5C 511.95,129.228 515.784,135.061 519.5,141C 514.932,144.975 510.265,148.975 505.5,153C 479.654,170.696 453.988,188.53 428.5,206.5C 425.32,208.255 422.32,210.255 419.5,212.5C 382.635,237.428 345.635,262.095 308.5,286.5C 305.32,288.255 302.32,290.255 299.5,292.5C 282.534,302.968 265.701,313.635 249,324.5C 248.731,327.28 249.898,329.446 252.5,331C 256.587,333.004 260.587,335.004 264.5,337C 268.834,337.9 273.168,338.734 277.5,339.5C 279.438,341.163 281.772,341.829 284.5,341.5C 299.447,343.704 314.447,344.037 329.5,342.5C 334.731,342.556 339.731,341.889 344.5,340.5C 348.295,339.383 352.295,338.717 356.5,338.5C 359.811,338.117 362.811,337.117 365.5,335.5C 382.948,330.012 399.282,322.345 414.5,312.5C 418.539,311.947 421.539,309.947 423.5,306.5C 424.992,304.078 426.992,303.412 429.5,304.5C 445.602,330.369 460.936,356.702 475.5,383.5C 475.755,385.967 476.755,387.967 478.5,389.5C 486.437,403.127 494.437,416.794 502.5,430.5C 504.27,433.673 505.103,437.006 505,440.5C 487.072,455.879 467.572,468.879 446.5,479.5C 444.033,479.755 442.033,480.755 440.5,482.5C 439.833,482.833 439.167,483.167 438.5,483.5C 435.603,484.129 432.936,485.129 430.5,486.5C 429.486,487.674 428.153,488.34 426.5,488.5C 421.374,489.268 416.707,490.935 412.5,493.5C 410.214,493.595 408.214,494.262 406.5,495.5C 402.475,495.63 398.809,496.63 395.5,498.5C 387.068,499.786 378.735,501.453 370.5,503.5C 366.64,503.808 362.974,504.475 359.5,505.5C 356.482,505.335 353.482,505.502 350.5,506C 349.584,506.278 348.918,506.778 348.5,507.5C 312.202,509.526 275.869,510.026 239.5,509C 236.305,508.819 233.305,508.319 230.5,507.5C 226.79,505.864 222.79,505.198 218.5,505.5C 207.462,504.227 196.795,501.56 186.5,497.5C 184.485,496.076 182.152,495.41 179.5,495.5C 177.972,494.691 176.306,494.024 174.5,493.5C 172.383,491.345 169.716,490.345 166.5,490.5C 96.8371,462.169 47.5037,413.502 18.5,344.5C 18.2451,342.033 17.2451,340.033 15.5,338.5C 10.8055,323.349 7.13879,308.016 4.5,292.5C 4.11561,287.99 3.44894,283.657 2.5,279.5C 2.26244,263.479 2.59577,247.479 3.5,231.5C 3.5,230.5 3.5,229.5 3.5,228.5C 4.46906,226.337 5.30239,224.004 6,221.5C 6.69459,214.806 7.52792,208.139 8.5,201.5C 9.50984,197.386 10.5098,193.386 11.5,189.5C 12.9459,186.746 13.9459,183.746 14.5,180.5C 17.5822,171.252 21.2488,162.252 25.5,153.5C 27.1947,151.465 28.528,149.132 29.5,146.5C 50.5088,105.824 80.5088,73.4912 119.5,49.5C 122.563,47.4675 125.896,45.8008 129.5,44.5C 130.298,44.0431 130.631,43.3764 130.5,42.5C 133.598,40.1084 136.931,37.9417 140.5,36C 157.208,27.4881 174.542,20.6547 192.5,15.5C 194.527,15.6621 196.527,15.4955 198.5,15C 199.056,14.6174 199.389,14.1174 199.5,13.5C 209.937,10.4266 220.604,8.42662 231.5,7.5C 239.784,6.26924 248.117,5.60258 256.5,5.5 Z"/></g>
<g><path style="opacity:1" fill="#f8b3a0" d="M 256.5,4.5 C 256.5,4.83333 256.5,5.16667 256.5,5.5C 248.117,5.60258 239.784,6.26924 231.5,7.5C 234.534,5.98226 237.867,5.14893 241.5,5C 246.489,4.50074 251.489,4.33407 256.5,4.5 Z"/></g>
<g><path style="opacity:1" fill="#f6957c" d="M 305.5,5.5 C 305.5,5.83333 305.5,6.16667 305.5,6.5C 289.188,5.59354 272.854,5.26021 256.5,5.5C 256.5,5.16667 256.5,4.83333 256.5,4.5C 272.861,3.19547 289.194,3.5288 305.5,5.5 Z"/></g>
<g><path style="opacity:1" fill="#f49680" d="M 279.5,147.5 C 271.804,147.354 264.138,147.687 256.5,148.5C 257.263,147.732 258.263,147.232 259.5,147C 266.346,146.179 273.013,146.346 279.5,147.5 Z"/></g>
<g><path style="opacity:1" fill="#fefdfc" d="M 279.5,147.5 C 282.997,148.402 286.663,149.069 290.5,149.5C 292.395,151.241 294.728,152.241 297.5,152.5C 307.43,156.229 316.264,161.896 324,169.5C 324.667,170.5 324.667,171.5 324,172.5C 285.12,196.36 246.287,220.36 207.5,244.5C 202.991,246.919 198.658,249.586 194.5,252.5C 192.958,253.301 191.292,253.634 189.5,253.5C 182.493,237.037 180.826,220.037 184.5,202.5C 185.736,200.351 186.736,198.018 187.5,195.5C 190.619,186.856 195.619,179.356 202.5,173C 210.618,166.275 219.618,161.109 229.5,157.5C 232.545,156.721 235.211,155.387 237.5,153.5C 238.833,153.167 240.167,152.833 241.5,152.5C 244.456,151.863 247.456,151.363 250.5,151C 252.066,150.392 253.4,149.558 254.5,148.5C 255.167,148.5 255.833,148.5 256.5,148.5C 264.138,147.687 271.804,147.354 279.5,147.5 Z"/></g>
<g><path style="opacity:1" fill="#fbd0c3" d="M 254.5,148.5 C 253.4,149.558 252.066,150.392 250.5,151C 247.456,151.363 244.456,151.863 241.5,152.5C 241.611,151.883 241.944,151.383 242.5,151C 246.583,150.47 250.583,149.637 254.5,148.5 Z"/></g>
<g><path style="opacity:1" fill="#f7b39f" d="M 290.5,149.5 C 293.272,149.759 295.605,150.759 297.5,152.5C 294.728,152.241 292.395,151.241 290.5,149.5 Z"/></g>
<g><path style="opacity:1" fill="#f8b4a0" d="M 29.5,146.5 C 28.528,149.132 27.1947,151.465 25.5,153.5C 25.7361,150.379 27.0695,148.046 29.5,146.5 Z"/></g>
<g><path style="opacity:1" fill="#fac7b6" d="M 237.5,153.5 C 235.211,155.387 232.545,156.721 229.5,157.5C 231.531,155.245 234.198,153.912 237.5,153.5 Z"/></g>
<g><path style="opacity:1" fill="#fac5b5" d="M 14.5,180.5 C 13.9459,183.746 12.9459,186.746 11.5,189.5C 11.446,186.008 12.446,183.008 14.5,180.5 Z"/></g>
<g><path style="opacity:1" fill="#fbc5b6" d="M 187.5,195.5 C 186.736,198.018 185.736,200.351 184.5,202.5C 184.179,199.423 185.179,197.09 187.5,195.5 Z"/></g>
<g><path style="opacity:1" fill="#fcd7cb" d="M 428.5,206.5 C 426.539,209.947 423.539,211.947 419.5,212.5C 422.32,210.255 425.32,208.255 428.5,206.5 Z"/></g>
<g><path style="opacity:1" fill="#f59076" d="M 8.5,201.5 C 7.52792,208.139 6.69459,214.806 6,221.5C 5.30239,224.004 4.46906,226.337 3.5,228.5C 4.28514,221.836 5.11848,215.17 6,208.5C 6.15579,205.809 6.98912,203.476 8.5,201.5 Z"/></g>
<g><path style="opacity:1" fill="#f7967e" d="M 207.5,244.5 C 204.352,248.916 200.019,251.583 194.5,252.5C 198.658,249.586 202.991,246.919 207.5,244.5 Z"/></g>
<g><path style="opacity:1" fill="#f8b19e" d="M 3.5,231.5 C 2.59577,247.479 2.26244,263.479 2.5,279.5C 1.33892,264.672 1.17226,249.672 2,234.5C 2.23209,233.263 2.73209,232.263 3.5,231.5 Z"/></g>
<g><path style="opacity:1" fill="#faccbd" d="M 2.5,279.5 C 3.44894,283.657 4.11561,287.99 4.5,292.5C 3.77842,292.082 3.27842,291.416 3,290.5C 2.50137,286.848 2.3347,283.182 2.5,279.5 Z"/></g>
<g><path style="opacity:1" fill="#fbd3c7" d="M 308.5,286.5 C 306.719,290.23 303.719,292.23 299.5,292.5C 302.32,290.255 305.32,288.255 308.5,286.5 Z"/></g>
<g><path style="opacity:1" fill="#f58f76" d="M 423.5,306.5 C 421.539,309.947 418.539,311.947 414.5,312.5C 417.32,310.255 420.32,308.255 423.5,306.5 Z"/></g>
<g><path style="opacity:1" fill="#fbc8b8" d="M 365.5,335.5 C 362.811,337.117 359.811,338.117 356.5,338.5C 356.791,337.351 357.624,336.684 359,336.5C 361.137,335.923 363.304,335.59 365.5,335.5 Z"/></g>
<g><path style="opacity:1" fill="#f8b39e" d="M 15.5,338.5 C 17.2451,340.033 18.2451,342.033 18.5,344.5C 16.7549,342.967 15.7549,340.967 15.5,338.5 Z"/></g>
<g><path style="opacity:1" fill="#f6a48d" d="M 277.5,339.5 C 279.861,339.674 282.194,340.007 284.5,340.5C 284.5,340.833 284.5,341.167 284.5,341.5C 281.772,341.829 279.438,341.163 277.5,339.5 Z"/></g>
<g><path style="opacity:1" fill="#fccec0" d="M 284.5,341.5 C 284.5,341.167 284.5,340.833 284.5,340.5C 299.485,341.309 314.485,341.642 329.5,341.5C 329.5,341.833 329.5,342.167 329.5,342.5C 314.447,344.037 299.447,343.704 284.5,341.5 Z"/></g>
<g><path style="opacity:1" fill="#f6a38d" d="M 344.5,340.5 C 339.731,341.889 334.731,342.556 329.5,342.5C 329.5,342.167 329.5,341.833 329.5,341.5C 334.463,340.746 339.463,340.413 344.5,340.5 Z"/></g>
<g><path style="opacity:1" fill="#f7a088" d="M 475.5,383.5 C 477.245,385.033 478.245,387.033 478.5,389.5C 476.755,387.967 475.755,385.967 475.5,383.5 Z"/></g>
<g><path style="opacity:1" fill="#f8ae9c" d="M 446.5,479.5 C 444.967,481.245 442.967,482.245 440.5,482.5C 442.033,480.755 444.033,479.755 446.5,479.5 Z"/></g>
<g><path style="opacity:1" fill="#fac5b5" d="M 438.5,483.5 C 436.383,485.655 433.716,486.655 430.5,486.5C 432.936,485.129 435.603,484.129 438.5,483.5 Z"/></g>
<g><path style="opacity:1" fill="#f69c86" d="M 166.5,490.5 C 169.716,490.345 172.383,491.345 174.5,493.5C 171.603,492.871 168.936,491.871 166.5,490.5 Z"/></g>
<g><path style="opacity:1" fill="#fccfc2" d="M 426.5,488.5 C 426.38,489.586 425.713,490.253 424.5,490.5C 420.351,491.259 416.351,492.259 412.5,493.5C 416.707,490.935 421.374,489.268 426.5,488.5 Z"/></g>
<g><path style="opacity:1" fill="#f7b19d" d="M 179.5,495.5 C 182.152,495.41 184.485,496.076 186.5,497.5C 183.848,497.59 181.515,496.924 179.5,495.5 Z"/></g>
<g><path style="opacity:1" fill="#f9bcaa" d="M 406.5,495.5 C 403.146,497.258 399.479,498.258 395.5,498.5C 398.809,496.63 402.475,495.63 406.5,495.5 Z"/></g>
<g><path style="opacity:1" fill="#f9c4b3" d="M 370.5,503.5 C 367.155,505.217 363.489,505.884 359.5,505.5C 362.974,504.475 366.64,503.808 370.5,503.5 Z"/></g>
<g><path style="opacity:1" fill="#f69980" d="M 218.5,505.5 C 222.79,505.198 226.79,505.864 230.5,507.5C 226.21,507.802 222.21,507.136 218.5,505.5 Z"/></g>
<g><path style="opacity:1" fill="#f8b6a4" d="M 359.5,505.5 C 356.054,506.687 352.387,507.354 348.5,507.5C 348.918,506.778 349.584,506.278 350.5,506C 353.482,505.502 356.482,505.335 359.5,505.5 Z"/></g>
</svg>
