<?xml version="1.0" encoding="UTF-8"?>
<!DOCTYPE svg PUBLIC "-//W3C//DTD SVG 1.1//EN" "http://www.w3.org/Graphics/SVG/1.1/DTD/svg11.dtd">
<svg xmlns="http://www.w3.org/2000/svg" version="1.1" width="100px" height="100px" style="shape-rendering:geometricPrecision; text-rendering:geometricPrecision; image-rendering:optimizeQuality; fill-rule:evenodd; clip-rule:evenodd" xmlns:xlink="http://www.w3.org/1999/xlink">
<g><path style="opacity:0.95" fill="#fefffe" d="M 39.5,3.5 C 57.5288,1.0105 73.0288,6.0105 86,18.5C 95.4113,30.4137 98.078,43.747 94,58.5C 85.4006,77.5792 70.5672,87.2459 49.5,87.5C 44.3662,87.6619 39.3662,86.9952 34.5,85.5C 29.5,88.3333 24.5,91.1667 19.5,94C 15.2589,95.4573 10.9255,95.7907 6.5,95C 5.42378,93.2739 5.25711,91.4406 6,89.5C 9.42198,85.1564 11.922,80.323 13.5,75C 11.796,70.9485 9.62933,67.1151 7,63.5C -1.79475,32.751 9.03858,12.751 39.5,3.5 Z M 31.5,24.5 C 32.4959,24.4142 33.3292,24.7476 34,25.5C 36.7364,33.876 39.5697,42.2093 42.5,50.5C 42.1667,51.1667 41.8333,51.8333 41.5,52.5C 39.5442,50.6492 38.5442,48.3158 38.5,45.5C 34.5,45.5 30.5,45.5 26.5,45.5C 26.4558,48.3158 25.4558,50.6492 23.5,52.5C 23.1667,51.8333 22.8333,51.1667 22.5,50.5C 25.5073,41.8105 28.5073,33.1439 31.5,24.5 Z M 64.5,38.5 C 67.0838,39.0483 68.0838,40.715 67.5,43.5C 70.8499,43.335 74.1832,43.5017 77.5,44C 77.9574,44.414 78.2907,44.914 78.5,45.5C 77.4825,46.8524 76.1492,47.8524 74.5,48.5C 72.7065,53.2605 70.0398,57.4272 66.5,61C 68.9112,62.9555 71.4112,64.7888 74,66.5C 74.5908,67.4835 74.2575,68.1501 73,68.5C 70.0467,67.0487 67.2133,65.3821 64.5,63.5C 61.3343,65.8325 57.8343,67.4992 54,68.5C 53.5,68.1667 53,67.8333 52.5,67.5C 55.8115,65.8368 58.8115,63.6701 61.5,61C 59.6524,58.6464 57.9857,56.1464 56.5,53.5C 57.0016,52.479 57.6683,52.3123 58.5,53C 60.4521,55.0739 62.2854,57.2406 64,59.5C 67.0864,56.2445 69.5864,52.5779 71.5,48.5C 65.5275,47.6697 59.5275,47.1697 53.5,47C 52.1667,46 52.1667,45 53.5,44C 56.8168,43.5017 60.1501,43.335 63.5,43.5C 63.366,41.7085 63.6993,40.0418 64.5,38.5 Z"/></g>
<g><path style="opacity:0.707" fill="#fefffe" d="M 31.5,31.5 C 33.8812,33.9122 35.5478,36.9122 36.5,40.5C 33.8333,41.8333 31.1667,41.8333 28.5,40.5C 29.801,37.5729 30.801,34.5729 31.5,31.5 Z"/></g>
</svg>
