<?xml version="1.0" encoding="UTF-8"?>
<!DOCTYPE svg PUBLIC "-//W3C//DTD SVG 1.1//EN" "http://www.w3.org/Graphics/SVG/1.1/DTD/svg11.dtd">
<svg xmlns="http://www.w3.org/2000/svg" version="1.1" width="100px" height="100px" style="shape-rendering:geometricPrecision; text-rendering:geometricPrecision; image-rendering:optimizeQuality; fill-rule:evenodd; clip-rule:evenodd" xmlns:xlink="http://www.w3.org/1999/xlink">
<g><path style="opacity:0.659" fill="#fefffe" d="M 50.5,46.5 C 54.5006,54.3418 60.1673,60.8418 67.5,66C 79.659,71.3917 88.8256,68.2251 95,56.5C 98.2115,41.1946 92.0449,32.1946 76.5,29.5C 75.6143,28.675 75.281,27.675 75.5,26.5C 87.057,26.7562 95.057,32.0896 99.5,42.5C 99.5,47.1667 99.5,51.8333 99.5,56.5C 91.526,72.3352 79.526,76.1685 63.5,68C 57.597,63.5988 52.597,58.4321 48.5,52.5C 44.4994,44.6582 38.8327,38.1582 31.5,33C 19.341,27.6083 10.1744,30.7749 4,42.5C 0.788479,57.8054 6.95515,66.8054 22.5,69.5C 23.3857,70.325 23.719,71.325 23.5,72.5C 11.9505,72.254 3.95052,66.9206 -0.5,56.5C -0.5,51.8333 -0.5,47.1667 -0.5,42.5C 7.45916,26.5704 19.4592,22.737 35.5,31C 41.403,35.4012 46.403,40.5679 50.5,46.5 Z"/></g>
<g><path style="opacity:0.478" fill="#fefffe" d="M 70.5,27.5 C 71.5,27.5 72.5,27.5 73.5,27.5C 73.5,28.5 73.5,29.5 73.5,30.5C 72.5,30.5 71.5,30.5 70.5,30.5C 70.5,29.5 70.5,28.5 70.5,27.5 Z"/></g>
<g><path style="opacity:0.478" fill="#fefffe" d="M 65.5,29.5 C 66.5,29.5 67.5,29.5 68.5,29.5C 68.5,30.5 68.5,31.5 68.5,32.5C 67.5,32.5 66.5,32.5 65.5,32.5C 65.5,31.5 65.5,30.5 65.5,29.5 Z"/></g>
<g><path style="opacity:0.477" fill="#fefffe" d="M 61.5,32.5 C 62.5,32.5 63.5,32.5 64.5,32.5C 64.5,33.5 64.5,34.5 64.5,35.5C 63.5,35.5 62.5,35.5 61.5,35.5C 61.5,34.5 61.5,33.5 61.5,32.5 Z"/></g>
<g><path style="opacity:0.43" fill="#fefffe" d="M 57.5,35.5 C 58.5,35.5 59.5,35.5 60.5,35.5C 59.5,40.8333 58.5,40.8333 57.5,35.5 Z"/></g>
<g><path style="opacity:0.429" fill="#fefffe" d="M 54.5,39.5 C 55.9953,39.4148 56.9953,40.0815 57.5,41.5C 56.1667,42.8333 54.8333,42.8333 53.5,41.5C 53.8627,40.8165 54.1961,40.1499 54.5,39.5 Z"/></g>
<g><path style="opacity:0.43" fill="#fefffe" d="M 50.5,46.5 C 50.5,45.5 50.5,44.5 50.5,43.5C 55.8333,44.5 55.8333,45.5 50.5,46.5 Z"/></g>
<g><path style="opacity:0.43" fill="#fefffe" d="M 48.5,52.5 C 48.5,53.5 48.5,54.5 48.5,55.5C 43.1667,54.5 43.1667,53.5 48.5,52.5 Z"/></g>
<g><path style="opacity:0.43" fill="#fefffe" d="M 41.5,56.5 C 42.9778,56.238 44.3112,56.5713 45.5,57.5C 43.5365,60.1939 42.2032,59.8606 41.5,56.5 Z"/></g>
<g><path style="opacity:0.43" fill="#fefffe" d="M 39.5,59.5 C 41.1042,60.287 41.7709,61.6203 41.5,63.5C 40.5,63.5 39.5,63.5 38.5,63.5C 38.4326,62.0413 38.7659,60.7079 39.5,59.5 Z"/></g>
<g><path style="opacity:0.478" fill="#fefffe" d="M 34.5,63.5 C 35.5,63.5 36.5,63.5 37.5,63.5C 37.5,64.5 37.5,65.5 37.5,66.5C 36.5,66.5 35.5,66.5 34.5,66.5C 34.5,65.5 34.5,64.5 34.5,63.5 Z"/></g>
<g><path style="opacity:0.478" fill="#fefffe" d="M 30.5,66.5 C 31.5,66.5 32.5,66.5 33.5,66.5C 33.5,67.5 33.5,68.5 33.5,69.5C 32.5,69.5 31.5,69.5 30.5,69.5C 30.5,68.5 30.5,67.5 30.5,66.5 Z"/></g>
<g><path style="opacity:0.478" fill="#fefffe" d="M 25.5,68.5 C 26.5,68.5 27.5,68.5 28.5,68.5C 28.5,69.5 28.5,70.5 28.5,71.5C 27.5,71.5 26.5,71.5 25.5,71.5C 25.5,70.5 25.5,69.5 25.5,68.5 Z"/></g>
</svg>
