<?xml version="1.0" encoding="UTF-8"?>
<!DOCTYPE svg PUBLIC "-//W3C//DTD SVG 1.1//EN" "http://www.w3.org/Graphics/SVG/1.1/DTD/svg11.dtd">
<svg xmlns="http://www.w3.org/2000/svg" version="1.1" width="100px" height="100px" style="shape-rendering:geometricPrecision; text-rendering:geometricPrecision; image-rendering:optimizeQuality; fill-rule:evenodd; clip-rule:evenodd" xmlns:xlink="http://www.w3.org/1999/xlink">
<g><path style="opacity:0.85" fill="#fefffe" d="M 6.5,5.5 C 14.5277,5.16897 22.5277,5.5023 30.5,6.5C 31.3482,8.40864 31.6816,10.4086 31.5,12.5C 22.8333,12.5 14.1667,12.5 5.5,12.5C 5.29803,10.0504 5.63137,7.71702 6.5,5.5 Z"/></g>
<g><path style="opacity:0.846" fill="#fefffe" d="M 37.5,5.5 C 45.5069,5.33362 53.5069,5.50029 61.5,6C 62.4231,8.04083 62.7564,10.2075 62.5,12.5C 53.8333,12.5 45.1667,12.5 36.5,12.5C 36.298,10.0504 36.6314,7.71702 37.5,5.5 Z"/></g>
<g><path style="opacity:0.85" fill="#fefffe" d="M 68.5,5.5 C 76.5069,5.33362 84.5069,5.50029 92.5,6C 93.4231,8.04083 93.7564,10.2075 93.5,12.5C 84.8333,12.5 76.1667,12.5 67.5,12.5C 67.448,10.0971 67.7814,7.76375 68.5,5.5 Z"/></g>
<g><path style="opacity:0.9" fill="#fefffe" d="M 5.5,14.5 C 14.1667,14.5 22.8333,14.5 31.5,14.5C 31.6662,20.5092 31.4995,26.5092 31,32.5C 28.0924,34.0253 24.9257,35.0253 21.5,35.5C 26.1315,36.3283 30.7982,36.8283 35.5,37C 37.3398,39.8263 38.0065,42.9929 37.5,46.5C 35.1667,46.5 32.8333,46.5 30.5,46.5C 30.5,45.5 30.5,44.5 30.5,43.5C 25.456,43.8275 20.456,43.4941 15.5,42.5C 14.6072,39.9159 14.2739,37.2492 14.5,34.5C 11.7508,34.7261 9.08415,34.3928 6.5,33.5C 5.50367,27.2015 5.17033,20.8682 5.5,14.5 Z"/></g>
<g><path style="opacity:0.891" fill="#fefffe" d="M 36.5,14.5 C 45.1667,14.5 53.8333,14.5 62.5,14.5C 62.6662,20.5092 62.4995,26.5092 62,32.5C 59.5185,34.3137 56.6852,34.9804 53.5,34.5C 53.5,38.5 53.5,42.5 53.5,46.5C 50.8333,46.5 48.1667,46.5 45.5,46.5C 45.5,42.5 45.5,38.5 45.5,34.5C 42.3148,34.9804 39.4815,34.3137 37,32.5C 36.5005,26.5092 36.3338,20.5092 36.5,14.5 Z"/></g>
<g><path style="opacity:0.9" fill="#fefffe" d="M 67.5,14.5 C 76.1667,14.5 84.8333,14.5 93.5,14.5C 93.8297,20.8682 93.4963,27.2015 92.5,33.5C 89.9159,34.3928 87.2492,34.7261 84.5,34.5C 84.7261,37.2492 84.3928,39.9159 83.5,42.5C 78.544,43.4941 73.544,43.8275 68.5,43.5C 68.5,44.5 68.5,45.5 68.5,46.5C 66.1667,46.5 63.8333,46.5 61.5,46.5C 60.9935,42.9929 61.6602,39.8263 63.5,37C 68.2018,36.8283 72.8685,36.3283 77.5,35.5C 74.0743,35.0253 70.9076,34.0253 68,32.5C 67.5005,26.5092 67.3338,20.5092 67.5,14.5 Z"/></g>
<g><path style="opacity:0.886" fill="#fefffe" d="M 23.5,49.5 C 40.8365,49.3334 58.1699,49.5001 75.5,50C 76.8932,51.1711 77.7265,52.6711 78,54.5C 78.4998,63.4938 78.6664,72.4938 78.5,81.5C 59.1667,81.5 39.8333,81.5 20.5,81.5C 20.3336,72.4938 20.5002,63.4938 21,54.5C 21.3661,52.5483 22.1995,50.8816 23.5,49.5 Z M 40.5,56.5 C 42.0281,56.5173 42.5281,57.184 42,58.5C 39.022,60.311 36.522,62.6443 34.5,65.5C 37.2912,67.7888 39.9579,70.2888 42.5,73C 42.1667,73.1667 41.8333,73.3333 41.5,73.5C 37.8781,71.2133 34.5448,68.5466 31.5,65.5C 34.3395,62.2654 37.3395,59.2654 40.5,56.5 Z M 50.5,56.5 C 51.6225,58.2884 51.7891,60.2884 51,62.5C 50.3333,65.8333 49.6667,69.1667 49,72.5C 48.2825,73.4506 47.4491,73.6172 46.5,73C 47.8976,67.5109 49.231,62.0109 50.5,56.5 Z M 56.5,56.5 C 60.6958,58.7763 64.3624,61.7763 67.5,65.5C 64.4552,68.5466 61.1219,71.2133 57.5,73.5C 57.1667,73.3333 56.8333,73.1667 56.5,73C 59.0421,70.2888 61.7088,67.7888 64.5,65.5C 61.7313,62.4092 59.0646,59.4092 56.5,56.5 Z"/></g>
<g><path style="opacity:0.909" fill="#fefffe" d="M 14.5,83.5 C 37.8333,83.5 61.1667,83.5 84.5,83.5C 84.6081,88.0213 82.6081,91.188 78.5,93C 59.1667,93.6667 39.8333,93.6667 20.5,93C 16.3919,91.188 14.3919,88.0213 14.5,83.5 Z"/></g>
</svg>
