<?xml version="1.0" encoding="UTF-8"?>
<!DOCTYPE svg PUBLIC "-//W3C//DTD SVG 1.1//EN" "http://www.w3.org/Graphics/SVG/1.1/DTD/svg11.dtd">
<svg xmlns="http://www.w3.org/2000/svg" version="1.1" width="512px" height="512px" style="shape-rendering:geometricPrecision; text-rendering:geometricPrecision; image-rendering:optimizeQuality; fill-rule:evenodd; clip-rule:evenodd" xmlns:xlink="http://www.w3.org/1999/xlink">
<g><path style="opacity:0.967" fill="#000000" d="M 251.5,23.5 C 254.187,23.3359 256.854,23.5026 259.5,24C 261.333,24.5 262.5,25.6667 263,27.5C 263.667,40.8333 263.667,54.1667 263,67.5C 262.5,69.3333 261.333,70.5 259.5,71C 256.833,71.6667 254.167,71.6667 251.5,71C 249.667,70.5 248.5,69.3333 248,67.5C 247.333,54.1667 247.333,40.8333 248,27.5C 248.69,25.6498 249.856,24.3164 251.5,23.5 Z"/></g>
<g><path style="opacity:0.949" fill="#000000" d="M 315.5,23.5 C 362.252,23.129 400.085,41.129 429,77.5C 447.752,103.092 456.419,131.759 455,163.5C 454.5,165.333 453.333,166.5 451.5,167C 432.167,167.667 412.833,167.667 393.5,167C 389.232,162.572 388.232,157.406 390.5,151.5C 388.3,137.732 380.633,133.232 367.5,138C 365.667,139.833 363.833,141.667 362,143.5C 361.042,146.075 360.542,148.741 360.5,151.5C 362.768,157.406 361.768,162.572 357.5,167C 343.5,167.667 329.5,167.667 315.5,167C 313.667,166.5 312.5,165.333 312,163.5C 311.5,154.173 311.334,144.839 311.5,135.5C 291.171,134.504 280.504,123.838 279.5,103.5C 280.504,83.1624 291.171,72.4957 311.5,71.5C 311.333,56.8295 311.5,42.1629 312,27.5C 312.69,25.6498 313.856,24.3164 315.5,23.5 Z M 327.5,40.5 C 369.929,44.7877 402.096,65.121 424,101.5C 432.564,117.088 437.397,133.755 438.5,151.5C 428.167,151.5 417.833,151.5 407.5,151.5C 406.504,131.171 395.838,120.504 375.5,119.5C 355.162,120.504 344.496,131.171 343.5,151.5C 338.167,151.5 332.833,151.5 327.5,151.5C 327.666,141.494 327.5,131.494 327,121.5C 322.572,117.232 317.406,116.232 311.5,118.5C 297.732,116.3 293.232,108.633 298,95.5C 299.833,93.6667 301.667,91.8333 303.5,90C 306.075,89.042 308.741,88.542 311.5,88.5C 317.406,90.7682 322.572,89.7682 327,85.5C 327.5,70.5037 327.667,55.5037 327.5,40.5 Z"/></g>
<g><path style="opacity:0.905" fill="#000000" d="M 156.5,48.5 C 160.803,47.7962 164.303,49.1295 167,52.5C 171.601,61.425 176.601,70.0917 182,78.5C 186.294,88.5091 183.128,93.3424 172.5,93C 170.714,92.2155 169.214,91.0488 168,89.5C 161.751,78.8319 155.918,67.9985 150.5,57C 151.161,53.1793 153.161,50.346 156.5,48.5 Z"/></g>
<g><path style="opacity:0.957" fill="#000000" d="M 239.5,87.5 C 246.175,87.3337 252.842,87.5004 259.5,88C 261.333,88.5 262.5,89.6667 263,91.5C 263.667,110.833 263.667,130.167 263,149.5C 258.572,153.768 253.406,154.768 247.5,152.5C 233.732,154.7 229.232,162.367 234,175.5C 235.833,177.333 237.667,179.167 239.5,181C 242.075,181.958 244.741,182.458 247.5,182.5C 253.406,180.232 258.572,181.232 263,185.5C 263.5,195.494 263.666,205.494 263.5,215.5C 268.833,215.5 274.167,215.5 279.5,215.5C 280.496,195.171 291.162,184.504 311.5,183.5C 331.838,184.504 342.504,195.171 343.5,215.5C 358.93,215.032 374.263,215.532 389.5,217C 393.102,247.758 385.935,275.925 368,301.5C 353.586,321.746 335.086,337.079 312.5,347.5C 311.509,351.445 311.176,355.445 311.5,359.5C 325.208,356.779 335.375,361.446 342,373.5C 343.597,384.427 343.931,395.427 343,406.5C 337.252,420.628 326.752,426.295 311.5,423.5C 311.667,434.505 311.5,445.505 311,456.5C 307.44,471.061 298.606,480.894 284.5,486C 274.89,487.113 265.223,487.613 255.5,487.5C 236.98,491.253 221.147,486.586 208,473.5C 203.995,468.489 201.328,462.822 200,456.5C 199.5,445.505 199.333,434.505 199.5,423.5C 185.792,426.221 175.625,421.554 169,409.5C 167.403,398.573 167.069,387.573 168,376.5C 173.748,362.372 184.248,356.705 199.5,359.5C 199.824,355.445 199.491,351.445 198.5,347.5C 153.56,325.337 127.393,289.337 120,239.5C 115.845,173.945 143.011,126.778 201.5,98C 213.865,92.912 226.532,89.412 239.5,87.5 Z M 240.5,104.5 C 242.833,104.5 245.167,104.5 247.5,104.5C 247.5,114.833 247.5,125.167 247.5,135.5C 227.171,136.496 216.504,147.162 215.5,167.5C 216.504,187.838 227.171,198.504 247.5,199.5C 247.5,204.833 247.5,210.167 247.5,215.5C 237.494,215.334 227.494,215.5 217.5,216C 213.232,220.428 212.232,225.594 214.5,231.5C 212.3,245.268 204.633,249.768 191.5,245C 189.667,243.167 187.833,241.333 186,239.5C 185.042,236.925 184.542,234.259 184.5,231.5C 186.768,225.594 185.768,220.428 181.5,216C 166.504,215.5 151.504,215.333 136.5,215.5C 140.788,173.071 161.121,140.904 197.5,119C 211.173,111.832 225.506,106.998 240.5,104.5 Z M 309.5,199.5 C 319.742,200.077 325.409,205.411 326.5,215.5C 324.232,221.406 325.232,226.572 329.5,231C 344.496,231.5 359.496,231.667 374.5,231.5C 370.797,271.756 352.13,302.923 318.5,325C 310.888,329.054 303.388,333.221 296,337.5C 295.5,344.826 295.334,352.159 295.5,359.5C 284.833,359.5 274.167,359.5 263.5,359.5C 263.5,343.5 263.5,327.5 263.5,311.5C 283.829,310.504 294.496,299.838 295.5,279.5C 294.496,259.162 283.829,248.496 263.5,247.5C 263.5,242.167 263.5,236.833 263.5,231.5C 273.506,231.666 283.506,231.5 293.5,231C 297.768,226.572 298.768,221.406 296.5,215.5C 297.187,207.151 301.52,201.818 309.5,199.5 Z M 136.5,231.5 C 146.833,231.5 157.167,231.5 167.5,231.5C 168.496,251.829 179.162,262.496 199.5,263.5C 219.838,262.496 230.504,251.829 231.5,231.5C 236.833,231.5 242.167,231.5 247.5,231.5C 247.334,241.506 247.5,251.506 248,261.5C 252.428,265.768 257.594,266.768 263.5,264.5C 277.268,266.7 281.768,274.367 277,287.5C 275.167,289.333 273.333,291.167 271.5,293C 268.925,293.958 266.259,294.458 263.5,294.5C 257.594,292.232 252.428,293.232 248,297.5C 247.5,318.164 247.333,338.831 247.5,359.5C 236.833,359.5 226.167,359.5 215.5,359.5C 215.666,352.159 215.5,344.826 215,337.5C 195.557,328.604 178.557,316.271 164,300.5C 147.648,280.449 138.481,257.449 136.5,231.5 Z M 191.5,375.5 C 234.168,375.333 276.835,375.5 319.5,376C 324,376.5 326.5,379 327,383.5C 328.113,390.715 327.446,397.715 325,404.5C 323.352,405.717 321.519,406.55 319.5,407C 276.833,407.667 234.167,407.667 191.5,407C 187,406.5 184.5,404 184,399.5C 183.13,393.083 183.464,386.749 185,380.5C 186.563,377.977 188.73,376.31 191.5,375.5 Z M 215.5,423.5 C 220.833,423.5 226.167,423.5 231.5,423.5C 231.334,432.839 231.5,442.173 232,451.5C 233.529,454.516 236.029,455.849 239.5,455.5C 242.971,455.849 245.471,454.516 247,451.5C 247.5,442.173 247.666,432.839 247.5,423.5C 252.833,423.5 258.167,423.5 263.5,423.5C 263.334,432.839 263.5,442.173 264,451.5C 265.529,454.516 268.029,455.849 271.5,455.5C 274.971,455.849 277.471,454.516 279,451.5C 279.5,442.173 279.666,432.839 279.5,423.5C 284.833,423.5 290.167,423.5 295.5,423.5C 295.666,431.507 295.5,439.507 295,447.5C 294.037,458.795 288.204,466.295 277.5,470C 262.833,472 248.167,472 233.5,470C 225,467.5 219.5,462 217,453.5C 215.669,443.55 215.169,433.55 215.5,423.5 Z"/></g>
<g><path style="opacity:0.909" fill="#000000" d="M 85.5,119.5 C 88.1873,119.336 90.854,119.503 93.5,120C 102.833,125.333 112.167,130.667 121.5,136C 126.833,141 126.833,146 121.5,151C 118.5,151.667 115.5,151.667 112.5,151C 102.25,144.959 92.0835,138.792 82,132.5C 79.6346,127.11 80.8013,122.776 85.5,119.5 Z"/></g>
<g><path style="opacity:0.967" fill="#000000" d="M 59.5,215.5 C 72.8375,215.333 86.1708,215.5 99.5,216C 101.333,216.5 102.5,217.667 103,219.5C 103.667,222.167 103.667,224.833 103,227.5C 102.5,229.333 101.333,230.5 99.5,231C 86.1667,231.667 72.8333,231.667 59.5,231C 56.484,229.471 55.1506,226.971 55.5,223.5C 55.2824,219.934 56.6157,217.268 59.5,215.5 Z"/></g>
<g><path style="opacity:0.967" fill="#000000" d="M 411.5,215.5 C 424.837,215.333 438.171,215.5 451.5,216C 453.333,216.5 454.5,217.667 455,219.5C 455.667,222.167 455.667,224.833 455,227.5C 454.5,229.333 453.333,230.5 451.5,231C 438.167,231.667 424.833,231.667 411.5,231C 408.484,229.471 407.151,226.971 407.5,223.5C 407.282,219.934 408.616,217.268 411.5,215.5 Z"/></g>
<g><path style="opacity:0.909" fill="#000000" d="M 112.5,295.5 C 123.001,294.161 126.835,298.494 124,308.5C 114.249,315.295 104.083,321.461 93.5,327C 83.0277,328.863 79.1943,324.696 82,314.5C 92.3148,308.267 102.481,301.934 112.5,295.5 Z"/></g>
<g><path style="opacity:0.91" fill="#000000" d="M 389.5,295.5 C 392.518,295.335 395.518,295.502 398.5,296C 408.75,302.041 418.917,308.208 429,314.5C 431.806,324.696 427.972,328.863 417.5,327C 406.917,321.461 396.751,315.295 387,308.5C 384.606,303.527 385.44,299.194 389.5,295.5 Z"/></g>
</svg>
