<!-- icon666.com - MILLIONS vector ICONS FREE --><svg xmlns="http://www.w3.org/2000/svg" id="Layer_1" data-name="Layer 1" viewBox="0 0 64 64"><path d="M42.2,22.978a1,1,0,0,1-.766.842,1.877,1.877,0,0,0-.469,3.488,1.874,1.874,0,0,0,2.641-2.326,1,1,0,0,1,1.408-1.235l4.448,2.38L56.005,13.9,43.774,7.354,42.25,10.2a3.815,3.815,0,0,1,1.112.389A3.886,3.886,0,0,1,39.7,17.444a3.819,3.819,0,0,1-.941-.71l-1.525,2.85,4.45,2.38A1,1,0,0,1,42.2,22.978Z" fill="#000000" style="fill: rgb(255, 255, 255);"></path><path d="M33,33.5h2.282A5.456,5.456,0,0,1,33.3,36.4l-2.8,2.1H36a5.508,5.508,0,0,0,5.478-5H58A3.5,3.5,0,0,0,61.5,30V6A3.5,3.5,0,0,0,58,2.5H33A3.5,3.5,0,0,0,29.5,6V30A3.5,3.5,0,0,0,33,33.5Zm1.995-13.978,2.852-5.33a1,1,0,0,1,1.855.246,1.862,1.862,0,0,0,.938,1.243,1.886,1.886,0,0,0,1.779-3.326,1.856,1.856,0,0,0-1.554-.089,1,1,0,0,1-1.234-1.408l2.851-5.33a1,1,0,0,1,1.354-.41L57.83,12.6a1,1,0,0,1,.41,1.354L50.753,27.952a1,1,0,0,1-1.354.41l-3.731-2a3.866,3.866,0,0,1-2.688,3,3.86,3.86,0,0,1-2.959-.292,3.886,3.886,0,0,1-1.593-5.26,3.786,3.786,0,0,1,.709-.94l-3.732-2a1,1,0,0,1-.41-1.354Z" fill="#000000" style="fill: rgb(255, 255, 255);"></path><path d="M20,56.012a4.189,4.189,0,0,1-1.454.261,4.273,4.273,0,1,1,0-8.546A4.189,4.189,0,0,1,20,47.988V44H14.818a1,1,0,0,1-.864-1.5,2.235,2.235,0,0,0,.318-1.133,2.272,2.272,0,1,0-4.544,0,2.235,2.235,0,0,0,.318,1.133A1,1,0,0,1,9.182,44H4V60H20Z" fill="#000000" style="fill: rgb(255, 255, 255);"></path><path d="M22,44v5.856a1,1,0,0,1-1.753.658,2.235,2.235,0,0,0-1.7-.787,2.273,2.273,0,1,0,0,4.546,2.235,2.235,0,0,0,1.7-.787A1,1,0,0,1,22,54.144V60H38V44H34.012a4.189,4.189,0,0,1,.26,1.455,4.272,4.272,0,0,1-8.544,0A4.189,4.189,0,0,1,25.988,44Z" fill="#000000" style="fill: rgb(255, 255, 255);"></path><path d="M7.728,41.364a4.272,4.272,0,1,1,8.544,0,4.206,4.206,0,0,1-.048.636H20V36.144a1,1,0,0,1,1.753-.658,2.235,2.235,0,0,0,1.7.787,2.273,2.273,0,1,0,0-4.546,2.235,2.235,0,0,0-1.7.787A1,1,0,0,1,20,31.856V26H4V42H7.776A4.206,4.206,0,0,1,7.728,41.364Z" fill="#000000" style="fill: rgb(255, 255, 255);"></path><path d="M23,5a1,1,0,0,0,1-1V3a1,1,0,0,0-2,0V4A1,1,0,0,0,23,5Z" fill="#000000" style="fill: rgb(255, 255, 255);"></path><path d="M23,7a1,1,0,0,0-1,1V9a1,1,0,0,0,2,0V8A1,1,0,0,0,23,7Z" fill="#000000" style="fill: rgb(255, 255, 255);"></path><path d="M20,7h1a1,1,0,0,0,0-2H20a1,1,0,0,0,0,2Z" fill="#000000" style="fill: rgb(255, 255, 255);"></path><path d="M25,7h1a1,1,0,0,0,0-2H25a1,1,0,0,0,0,2Z" fill="#000000" style="fill: rgb(255, 255, 255);"></path><path d="M58,41a1,1,0,0,0,1-1V39a1,1,0,0,0-2,0v1A1,1,0,0,0,58,41Z" fill="#000000" style="fill: rgb(255, 255, 255);"></path><path d="M57,45a1,1,0,0,0,2,0V44a1,1,0,0,0-2,0Z" fill="#000000" style="fill: rgb(255, 255, 255);"></path><path d="M56,41H55a1,1,0,0,0,0,2h1a1,1,0,0,0,0-2Z" fill="#000000" style="fill: rgb(255, 255, 255);"></path><path d="M60,41a1,1,0,0,0,0,2h1a1,1,0,0,0,0-2Z" fill="#000000" style="fill: rgb(255, 255, 255);"></path></svg>