<?xml version="1.0" encoding="UTF-8"?>
<!DOCTYPE svg PUBLIC "-//W3C//DTD SVG 1.1//EN" "http://www.w3.org/Graphics/SVG/1.1/DTD/svg11.dtd">
<svg xmlns="http://www.w3.org/2000/svg" version="1.1" width="100px" height="100px" style="shape-rendering:geometricPrecision; text-rendering:geometricPrecision; image-rendering:optimizeQuality; fill-rule:evenodd; clip-rule:evenodd" xmlns:xlink="http://www.w3.org/1999/xlink">
<g><path style="opacity:0.633" fill="#fefffe" d="M 46.5,8.5 C 52.8421,8.33379 59.1754,8.50046 65.5,9C 68.2399,11.9789 68.0733,14.8122 65,17.5C 64.3333,26.1667 64.3333,34.8333 65,43.5C 72.5852,55.6681 79.9185,68.0015 87,80.5C 88.0568,84.886 86.5568,88.0527 82.5,90C 64.8333,90.6667 47.1667,90.6667 29.5,90C 25.9114,88.3258 24.2447,85.4925 24.5,81.5C 19.7584,79.9092 15.5918,77.2425 12,73.5C 11.3828,72.5509 11.5494,71.7175 12.5,71C 10.6667,70.5 9.5,69.3333 9,67.5C 8.33333,62.8333 8.33333,58.1667 9,53.5C 11.6394,46.5411 16.8061,41.7077 24.5,39C 28.3985,39.203 32.3985,39.203 36.5,39C 39.5548,40.9468 42.7215,42.7801 46,44.5C 46.3333,44.1667 46.6667,43.8333 47,43.5C 47.6667,34.8333 47.6667,26.1667 47,17.5C 42.5455,14.6664 42.3788,11.6664 46.5,8.5 Z M 47.5,11.5 C 53.1667,11.5 58.8333,11.5 64.5,11.5C 64.5,12.5 64.5,13.5 64.5,14.5C 58.8236,14.6661 53.1569,14.4994 47.5,14C 46.4019,13.2303 46.4019,12.397 47.5,11.5 Z M 50.5,17.5 C 54.1667,17.5 57.8333,17.5 61.5,17.5C 61.5,18.5 61.5,19.5 61.5,20.5C 55.1077,21.1115 55.1077,22.4448 61.5,24.5C 55.1077,26.5552 55.1077,27.8885 61.5,28.5C 61.5,29.5 61.5,30.5 61.5,31.5C 59.8333,31.5 58.1667,31.5 56.5,31.5C 56.5,32.5 56.5,33.5 56.5,34.5C 58.1667,34.5 59.8333,34.5 61.5,34.5C 61.5,35.5 61.5,36.5 61.5,37.5C 59.8333,37.5 58.1667,37.5 56.5,37.5C 56.5,38.5 56.5,39.5 56.5,40.5C 58.1667,40.5 59.8333,40.5 61.5,40.5C 61.4598,43.4245 62.2932,46.0912 64,48.5C 70.2505,57.9989 76.2505,67.6656 82,77.5C 85.3077,80.9882 85.1411,84.1549 81.5,87C 64.5,87.6667 47.5,87.6667 30.5,87C 27.1295,85.1859 26.9629,83.3526 30,81.5C 32.0639,82.5914 34.2305,82.7581 36.5,82C 43.5454,79.9572 48.3787,75.4572 51,68.5C 53.5691,61.4726 52.7358,54.8059 48.5,48.5C 48.7189,47.062 49.2189,45.7287 50,44.5C 50.4998,35.5062 50.6664,26.5062 50.5,17.5 Z M 25.5,41.5 C 27.3936,42.0476 29.0603,43.0476 30.5,44.5C 34.2196,40.2953 36.5529,40.962 37.5,46.5C 40.9095,44.6951 43.5762,45.5284 45.5,49C 44.6198,50.3561 44.2865,51.8561 44.5,53.5C 50.0868,54.3495 50.7535,56.6829 46.5,60.5C 50.6178,63.9511 50.1178,66.6178 45,68.5C 45.4222,73.8996 42.9222,75.8996 37.5,74.5C 36.5529,80.038 34.2196,80.7047 30.5,76.5C 26.6103,80.5512 23.9436,79.8845 22.5,74.5C 16.9653,76.1317 14.7986,74.1317 16,68.5C 11.1691,67.189 10.3358,64.5223 13.5,60.5C 10.3358,56.4777 11.1691,53.811 16,52.5C 14.7986,46.8683 16.9653,44.8683 22.5,46.5C 22.31,44.0411 23.31,42.3745 25.5,41.5 Z M 32.5,52.5 C 30.139,52.6741 27.8056,53.0074 25.5,53.5C 27.6548,51.466 29.9882,51.1326 32.5,52.5 Z M 34.5,53.5 C 36.5,53.5 37.5,54.5 37.5,56.5C 36.1667,55.8333 35.1667,54.8333 34.5,53.5 Z M 29.5,55.5 C 37.1727,58.501 37.3393,61.8344 30,65.5C 24.2101,62.3675 24.0434,59.0341 29.5,55.5 Z M 37.5,56.5 C 40.1667,59.1667 40.1667,61.8333 37.5,64.5C 37.5,61.8333 37.5,59.1667 37.5,56.5 Z M 37.5,64.5 C 37.0334,67.2974 35.3667,68.6308 32.5,68.5C 34.1423,67.197 35.8089,65.8637 37.5,64.5 Z M 25.5,67.5 C 27.8056,67.9926 30.139,68.3259 32.5,68.5C 29.9882,69.8674 27.6548,69.534 25.5,67.5 Z"/></g>
<g><path style="opacity:0.612" fill="#fefffe" d="M 14.5,13.5 C 22.6577,12.8229 26.1577,16.4895 25,24.5C 22.5647,29.2238 18.7314,30.7238 13.5,29C 11.6667,28.5 10.5,27.3333 10,25.5C 8.30872,20.1311 9.80872,16.1311 14.5,13.5 Z M 15.5,16.5 C 20.3247,16.4881 22.4914,18.8214 22,23.5C 19.3388,26.9661 16.3388,27.2994 13,24.5C 11.8366,21.0289 12.6699,18.3623 15.5,16.5 Z"/></g>
<g><path style="opacity:0.532" fill="#fefffe" d="M 87.5,13.5 C 88.5,13.5 89.5,13.5 90.5,13.5C 90.5,14.8333 90.5,16.1667 90.5,17.5C 89.5,17.5 88.5,17.5 87.5,17.5C 87.5,16.1667 87.5,14.8333 87.5,13.5 Z"/></g>
<g><path style="opacity:0.637" fill="#fefffe" d="M 34.5,18.5 C 35.5,18.5 36.5,18.5 37.5,18.5C 36.5,23.8333 35.5,23.8333 34.5,18.5 Z"/></g>
<g><path style="opacity:0.455" fill="#fefffe" d="M 72.5,30.5 C 74.9118,30.6941 75.9118,32.0274 75.5,34.5C 74.1667,34.5 72.8333,34.5 71.5,34.5C 71.4326,33.0413 71.7659,31.7079 72.5,30.5 Z"/></g>
<g><path style="opacity:0.53" fill="#fefffe" d="M 8.5,34.5 C 9.5,34.5 10.5,34.5 11.5,34.5C 11.5,35.8333 11.5,37.1667 11.5,38.5C 10.5,38.5 9.5,38.5 8.5,38.5C 8.5,37.1667 8.5,35.8333 8.5,34.5 Z"/></g>
<g><path style="opacity:0.646" fill="#fefffe" d="M 81.5,43.5 C 90.1709,43.1785 92.5042,46.8452 88.5,54.5C 81.2023,56.7009 78.0356,54.0343 79,46.5C 80.045,45.6266 80.8783,44.6266 81.5,43.5 Z M 82.5,46.5 C 87.1585,46.0146 88.4919,47.848 86.5,52C 81.7282,52.8104 80.3948,50.9771 82.5,46.5 Z"/></g>
<g><path style="opacity:0.61" fill="#fefffe" d="M 27.5,48.5 C 40.2329,49.3122 44.3996,55.6455 40,67.5C 34.8725,72.9944 29.0392,73.8278 22.5,70C 17.8403,64.5493 17.3403,58.716 21,52.5C 23.0129,50.7518 25.1795,49.4185 27.5,48.5 Z M 32.5,52.5 C 30.139,52.6741 27.8056,53.0074 25.5,53.5C 27.6548,51.466 29.9882,51.1326 32.5,52.5 Z M 34.5,53.5 C 36.5,53.5 37.5,54.5 37.5,56.5C 36.1667,55.8333 35.1667,54.8333 34.5,53.5 Z M 29.5,55.5 C 24.0434,59.0341 24.2101,62.3675 30,65.5C 37.3393,61.8344 37.1727,58.501 29.5,55.5 Z M 37.5,56.5 C 40.1667,59.1667 40.1667,61.8333 37.5,64.5C 37.5,61.8333 37.5,59.1667 37.5,56.5 Z M 37.5,64.5 C 37.0334,67.2974 35.3667,68.6308 32.5,68.5C 34.1423,67.197 35.8089,65.8637 37.5,64.5 Z M 25.5,67.5 C 27.8056,67.9926 30.139,68.3259 32.5,68.5C 29.9882,69.8674 27.6548,69.534 25.5,67.5 Z"/></g>
<g><path style="opacity:0.62" fill="#fefffe" d="M 32.5,52.5 C 32.8417,53.3382 33.5084,53.6716 34.5,53.5C 35.1667,54.8333 36.1667,55.8333 37.5,56.5C 37.5,59.1667 37.5,61.8333 37.5,64.5C 35.8089,65.8637 34.1423,67.197 32.5,68.5C 30.139,68.3259 27.8056,67.9926 25.5,67.5C 25.5,66.8333 25.1667,66.5 24.5,66.5C 24.5,65.8333 24.1667,65.5 23.5,65.5C 23.6716,64.5084 23.3382,63.8417 22.5,63.5C 22.5,61.5 22.5,59.5 22.5,57.5C 23.3382,57.1583 23.6716,56.4916 23.5,55.5C 24.1667,55.5 24.5,55.1667 24.5,54.5C 25.1667,54.5 25.5,54.1667 25.5,53.5C 27.8056,53.0074 30.139,52.6741 32.5,52.5 Z M 29.5,55.5 C 24.0434,59.0341 24.2101,62.3675 30,65.5C 37.3393,61.8344 37.1727,58.501 29.5,55.5 Z"/></g>
<g><path style="opacity:0.606" fill="#fefffe" d="M 60.5,54.5 C 62.6237,55.0312 64.1237,56.3645 65,58.5C 69.1434,66.4394 72.9767,74.4394 76.5,82.5C 66.4778,82.8319 56.4778,82.4985 46.5,81.5C 46.7093,80.914 47.0426,80.414 47.5,80C 55.8333,79.6667 64.1667,79.3333 72.5,79C 67.5307,71.2295 63.5307,63.0628 60.5,54.5 Z"/></g>
<g><path style="opacity:0.491" fill="#fefffe" d="M 87.5,62.5 C 88.5,62.5 89.5,62.5 90.5,62.5C 90.5,63.8333 90.5,65.1667 90.5,66.5C 87.4502,66.3538 86.4502,65.0204 87.5,62.5 Z"/></g>
<g><path style="opacity:0.456" fill="#fefffe" d="M 14.5,85.5 C 15.5,85.5 16.5,85.5 17.5,85.5C 17.5,86.8333 17.5,88.1667 17.5,89.5C 14.0464,89.7332 13.0464,88.3999 14.5,85.5 Z"/></g>
</svg>
