<?xml version="1.0" encoding="UTF-8"?>
<!DOCTYPE svg PUBLIC "-//W3C//DTD SVG 1.1//EN" "http://www.w3.org/Graphics/SVG/1.1/DTD/svg11.dtd">
<svg xmlns="http://www.w3.org/2000/svg" version="1.1" width="100px" height="100px" style="shape-rendering:geometricPrecision; text-rendering:geometricPrecision; image-rendering:optimizeQuality; fill-rule:evenodd; clip-rule:evenodd" xmlns:xlink="http://www.w3.org/1999/xlink">
<g><path style="opacity:0.812" fill="#fefffe" d="M 65.5,17.5 C 65.2627,18.791 65.596,19.791 66.5,20.5C 70.5,39.8333 70.5,59.1667 66.5,78.5C 65.596,79.209 65.2627,80.209 65.5,81.5C 63.6686,87.5249 60.3353,92.6915 55.5,97C 48.7414,99.9717 43.2414,98.4717 39,92.5C 37.1031,89.8726 35.6031,87.0393 34.5,84C 34.8333,83.6667 35.1667,83.3333 35.5,83C 32.153,83.217 28.8196,83.8837 25.5,85C 4.95447,88.469 -1.54553,80.6357 6,61.5C 8.7829,57.0493 11.9496,52.8826 15.5,49C 6.26508,41.699 2.09842,32.199 3,20.5C 5.85599,14.7385 10.5227,12.4052 17,13.5C 23.3116,13.8339 29.4783,14.6672 35.5,16C 35.1667,15.6667 34.8333,15.3333 34.5,15C 36.5023,8.98032 40.169,4.31366 45.5,1C 50.0722,-0.0758652 54.2389,0.757468 58,3.5C 61.3218,7.81497 63.8218,12.4816 65.5,17.5 Z M 58.5,21.5 C 57.7784,21.0825 57.2784,20.4158 57,19.5C 55.082,20.5418 53.2487,21.7085 51.5,23C 52.056,23.3826 52.3893,23.8826 52.5,24.5C 47.3106,22.4032 42.3106,20.0698 37.5,17.5C 41.1439,17.2923 43.3105,15.2923 44,11.5C 47.6667,6.16667 51.3333,6.16667 55,11.5C 56.8681,14.6051 58.0348,17.9385 58.5,21.5 Z M 31.5,34.5 C 27.817,38.1803 23.817,41.5136 19.5,44.5C 16.1888,39.6686 13.0221,34.6686 10,29.5C 7.95223,23.3866 10.1189,20.0533 16.5,19.5C 22.3822,20.2204 28.0489,21.7204 33.5,24C 31.6363,26.2514 30.6363,28.918 30.5,32C 30.528,33.0698 30.8614,33.9032 31.5,34.5 Z M 60.5,29.5 C 58.9731,29.573 57.9731,28.9063 57.5,27.5C 60.0443,24.6935 61.0443,25.3601 60.5,29.5 Z M 38.5,26.5 C 40.153,26.6596 41.4863,27.3263 42.5,28.5C 41.1667,28.8333 39.8333,29.1667 38.5,29.5C 38.5,28.5 38.5,27.5 38.5,26.5 Z M 46.5,30.5 C 51.3898,32.7112 56.0565,35.3779 60.5,38.5C 61.086,38.2907 61.586,37.9574 62,37.5C 62.6667,45.5 62.6667,53.5 62,61.5C 61.586,61.0426 61.086,60.7093 60.5,60.5C 57.328,62.2519 54.328,64.2519 51.5,66.5C 51.8627,67.1835 52.1961,67.8501 52.5,68.5C 47.6102,66.2888 42.9435,63.6221 38.5,60.5C 37.7025,60.9569 37.3691,61.6236 37.5,62.5C 36.8333,55.5 36.1667,48.5 35.5,41.5C 38.5674,38.1211 42.234,35.4544 46.5,33.5C 47.5624,32.5754 47.5624,31.5754 46.5,30.5 Z M 34.5,42.5 C 34.0269,43.9063 33.0269,44.573 31.5,44.5C 31.9731,43.0937 32.9731,42.427 34.5,42.5 Z M 29.5,46.5 C 29.4151,55.8933 30.0817,65.2266 31.5,74.5C 32.5,74.5 33.5,74.5 34.5,74.5C 29.0191,76.9991 23.1857,78.6657 17,79.5C 10.3549,79.1879 8.02157,75.8546 10,69.5C 13.2649,62.0854 18.0983,56.0854 24.5,51.5C 23.5244,52.8149 22.5244,54.1482 21.5,55.5C 23.7908,57.2878 25.9575,59.2878 28,61.5C 28.6667,58.1667 28.6667,54.8333 28,51.5C 27.3292,50.7476 26.4959,50.4142 25.5,50.5C 26.5,48.8333 27.8333,47.5 29.5,46.5 Z M 38.5,69.5 C 40.4341,70.1103 42.1007,71.1103 43.5,72.5C 41.8333,72.5 40.1667,72.5 38.5,72.5C 38.5,71.5 38.5,70.5 38.5,69.5 Z M 60.5,69.5 C 60.6567,70.8734 60.49,72.2068 60,73.5C 59.0975,72.2986 57.9308,71.4652 56.5,71C 57.745,70.2086 59.0783,69.7086 60.5,69.5 Z M 46.5,74.5 C 50.1756,75.7541 53.6756,77.4207 57,79.5C 57.2784,78.5842 57.7784,77.9175 58.5,77.5C 57.9853,83.8842 54.9853,88.5508 49.5,91.5C 45.4669,89.7958 42.8002,86.7958 41.5,82.5C 40.3112,81.5713 38.9778,81.238 37.5,81.5C 40.4081,80.0459 43.4081,78.5459 46.5,77C 47.5981,76.2303 47.5981,75.397 46.5,74.5 Z"/></g>
<g><path style="opacity:0.816" fill="#fefffe" d="M 83.5,50.5 C 82.8333,50.5 82.5,50.8333 82.5,51.5C 81.8333,51.5 81.5,51.8333 81.5,52.5C 80.8333,52.5 80.5,52.8333 80.5,53.5C 79.8333,53.5 79.5,53.8333 79.5,54.5C 76.2496,56.2433 73.4162,58.5766 71,61.5C 70.3333,58.1667 70.3333,54.8333 71,51.5C 72.1451,50.3636 73.3117,49.3636 74.5,48.5C 75.1667,48.5 75.5,48.1667 75.5,47.5C 76.1667,47.5 76.5,47.1667 76.5,46.5C 77.1667,46.5 77.5,46.1667 77.5,45.5C 82.3121,40.5573 86.1454,34.8906 89,28.5C 90.6225,23.1181 88.6225,20.1181 83,19.5C 78.2764,20.2226 73.6098,21.2226 69,22.5C 67.9889,21.9444 67.1556,21.2778 66.5,20.5C 66.7373,19.209 66.404,18.209 65.5,17.5C 66.347,16.0337 67.6803,15.2004 69.5,15C 76.0992,13.5043 82.7658,13.171 89.5,14C 96.0743,17.6082 98.241,23.1082 96,30.5C 92.8272,37.8286 88.6605,44.4953 83.5,50.5 Z"/></g>
<g><path style="opacity:0.65" fill="#fefffe" d="M 77.5,45.5 C 76.8333,45.5 76.5,45.8333 76.5,46.5C 75.8333,46.5 75.5,46.8333 75.5,47.5C 74.8333,47.5 74.5,47.8333 74.5,48.5C 73.1779,48.67 72.0113,48.3366 71,47.5C 70.3333,44.1667 70.3333,40.8333 71,37.5C 73.8303,39.8098 75.997,42.4765 77.5,45.5 Z"/></g>
<g><path style="opacity:0.874" fill="#fefffe" d="M 46.5,40.5 C 57.0877,40.6769 60.4211,45.6769 56.5,55.5C 50.1705,60.1408 45.0038,59.1408 41,52.5C 39.8936,47.0512 41.7269,43.0512 46.5,40.5 Z"/></g>
<g><path style="opacity:0.799" fill="#fefffe" d="M 35.5,41.5 C 36.1667,48.5 36.8333,55.5 37.5,62.5C 37.1984,65.0593 37.5318,67.3926 38.5,69.5C 38.5,70.5 38.5,71.5 38.5,72.5C 37.5084,72.3284 36.8417,72.6618 36.5,73.5C 35.5084,73.3284 34.8417,73.6618 34.5,74.5C 33.5,74.5 32.5,74.5 31.5,74.5C 30.0817,65.2266 29.4151,55.8933 29.5,46.5C 30.1667,46.5 30.5,46.1667 30.5,45.5C 31.1667,45.5 31.5,45.1667 31.5,44.5C 33.0269,44.573 34.0269,43.9063 34.5,42.5C 35.1667,42.5 35.5,42.1667 35.5,41.5 Z"/></g>
<g><path style="opacity:0.682" fill="#fefffe" d="M 25.5,50.5 C 26.4959,50.4142 27.3292,50.7476 28,51.5C 28.6667,54.8333 28.6667,58.1667 28,61.5C 25.9575,59.2878 23.7908,57.2878 21.5,55.5C 22.5244,54.1482 23.5244,52.8149 24.5,51.5C 25.1667,51.5 25.5,51.1667 25.5,50.5 Z"/></g>
<g><path style="opacity:0.818" fill="#fefffe" d="M 83.5,50.5 C 90.7334,56.4299 95.0667,64.0966 96.5,73.5C 95.7406,82.5791 90.7406,86.5791 81.5,85.5C 78.8333,85.3333 76.1667,85.1667 73.5,85C 70.3337,84.6779 67.667,83.5113 65.5,81.5C 66.404,80.791 66.7373,79.791 66.5,78.5C 67.1556,77.7222 67.9889,77.0556 69,76.5C 73.2863,77.7142 77.6197,78.7142 82,79.5C 89.5327,78.4806 91.5327,74.4806 88,67.5C 85.1458,63.1098 82.3125,58.7765 79.5,54.5C 80.1667,54.5 80.5,54.1667 80.5,53.5C 81.1667,53.5 81.5,53.1667 81.5,52.5C 82.1667,52.5 82.5,52.1667 82.5,51.5C 83.1667,51.5 83.5,51.1667 83.5,50.5 Z"/></g>
</svg>
