<?xml version="1.0" encoding="UTF-8"?>
<!DOCTYPE svg PUBLIC "-//W3C//DTD SVG 1.1//EN" "http://www.w3.org/Graphics/SVG/1.1/DTD/svg11.dtd">
<svg xmlns="http://www.w3.org/2000/svg" version="1.1" width="100px" height="100px" style="shape-rendering:geometricPrecision; text-rendering:geometricPrecision; image-rendering:optimizeQuality; fill-rule:evenodd; clip-rule:evenodd" xmlns:xlink="http://www.w3.org/1999/xlink">
<g><path style="opacity:0.897" fill="#fefffe" d="M 32.5,7.5 C 35.5,7.5 38.5,7.5 41.5,7.5C 41.5,17.1667 41.5,26.8333 41.5,36.5C 49.2056,35.6646 56.5389,36.8312 63.5,40C 64.6667,41.1667 65.8333,42.3333 67,43.5C 72.3181,59.1015 77.4848,74.7682 82.5,90.5C 79.1667,91.8333 75.8333,91.8333 72.5,90.5C 68.4243,78.6076 64.7577,66.6076 61.5,54.5C 54.8333,54.5 48.1667,54.5 41.5,54.5C 38.8333,64.5 36.1667,74.5 33.5,84.5C 30.5,83.8333 27.5,83.1667 24.5,82.5C 26.526,72.7301 29.026,63.0635 32,53.5C 32.4999,38.1703 32.6666,22.837 32.5,7.5 Z"/></g>
<g><path style="opacity:0.864" fill="#fefffe" d="M 17.5,36.5 C 28.2863,36.774 31.4529,41.774 27,51.5C 20.9111,55.8941 15.9111,54.8941 12,48.5C 10.8936,43.0512 12.7269,39.0512 17.5,36.5 Z"/></g>
<g><path style="opacity:0.863" fill="#fefffe" d="M 49.5,57.5 C 52.8333,57.5 56.1667,57.5 59.5,57.5C 56.8333,68.8333 54.1667,80.1667 51.5,91.5C 48.1016,91.8204 44.7683,91.487 41.5,90.5C 44.6404,79.6053 47.3071,68.6053 49.5,57.5 Z"/></g>
</svg>
