<?xml version="1.0" encoding="UTF-8"?>
<!DOCTYPE svg PUBLIC "-//W3C//DTD SVG 1.1//EN" "http://www.w3.org/Graphics/SVG/1.1/DTD/svg11.dtd">
<svg xmlns="http://www.w3.org/2000/svg" version="1.1" width="100px" height="100px" style="shape-rendering:geometricPrecision; text-rendering:geometricPrecision; image-rendering:optimizeQuality; fill-rule:evenodd; clip-rule:evenodd" xmlns:xlink="http://www.w3.org/1999/xlink">
<g><path style="opacity:0.751" fill="#fefffe" d="M 23.5,-0.5 C 26.8333,-0.5 30.1667,-0.5 33.5,-0.5C 34.4787,1.14537 35.812,2.4787 37.5,3.5C 36.9727,1.91357 37.6394,0.580242 39.5,-0.5C 46.1667,-0.5 52.8333,-0.5 59.5,-0.5C 80.5,5.16667 93.8333,18.5 99.5,39.5C 99.5,46.1667 99.5,52.8333 99.5,59.5C 93.8333,80.5 80.5,93.8333 59.5,99.5C 52.8333,99.5 46.1667,99.5 39.5,99.5C 18.5,93.8333 5.16667,80.5 -0.5,59.5C -0.5,52.8333 -0.5,46.1667 -0.5,39.5C 1.07851,34.4517 3.07851,29.4517 5.5,24.5C 6.65066,23.269 7.81732,23.269 9,24.5C 9.19529,26.2072 9.19529,27.8739 9,29.5C 11.5366,26.628 14.3699,24.128 17.5,22C 13.1667,21.6667 8.83333,21.3333 4.5,21C 1.59869,18.3599 -0.0679785,15.1932 -0.5,11.5C -0.5,8.83333 -0.5,6.16667 -0.5,3.5C 1.85684,3.33669 4.19018,3.50335 6.5,4C 12.104,10.7393 19.104,12.4059 27.5,9C 25.4672,6.10411 24.1338,2.93744 23.5,-0.5 Z M 29.5,4.5 C 29.8966,3.47498 30.5632,3.30831 31.5,4C 33.208,6.04346 35.208,7.71013 37.5,9C 35.8333,9.66667 34.1667,9.66667 32.5,9C 31.6006,7.34839 30.6006,5.84839 29.5,4.5 Z M 92.5,34.5 C 89.0666,32.1182 86.0666,29.2849 83.5,26C 77.898,25.2768 72.398,25.7768 67,27.5C 65.3925,27.2308 64.2259,26.3974 63.5,25C 59.8333,24.3333 56.1667,24.3333 52.5,25C 50.253,26.995 49.253,29.495 49.5,32.5C 56.1344,32.6768 56.1344,33.1768 49.5,34C 47,36.5 44.5,39 42,41.5C 41.5026,44.146 41.3359,46.8127 41.5,49.5C 42.8734,49.3433 44.2068,49.51 45.5,50C 43.2406,51.7146 41.0739,53.5479 39,55.5C 36.1666,65.1557 39.6666,69.489 49.5,68.5C 50.129,73.9029 51.129,79.2362 52.5,84.5C 55.8333,85.8333 59.1667,85.8333 62.5,84.5C 64,82.1667 65.5,79.8333 67,77.5C 67.6514,75.765 67.4847,74.0983 66.5,72.5C 70.007,70.5393 71.3403,67.5393 70.5,63.5C 67.8333,63.5 65.1667,63.5 62.5,63.5C 62.3505,62.448 62.5172,61.448 63,60.5C 65.456,62.3213 68.2893,62.988 71.5,62.5C 71.8333,53.1667 72.1667,53.1667 72.5,62.5C 75.0444,62.8957 77.2111,62.229 79,60.5C 80.2319,63.3004 80.8985,66.3004 81,69.5C 82.0674,70.1905 83.2341,70.6905 84.5,71C 82.6667,72.1667 80.8333,73.3333 79,74.5C 78.6667,78.1667 78.3333,81.8333 78,85.5C 59.8752,98.2461 41.3752,98.7461 22.5,87C 6.96073,74.866 1.29406,59.366 5.5,40.5C 6.32752,44.7956 6.82752,49.1289 7,53.5C 10.6667,55.8333 13.6667,58.8333 16,62.5C 18.1881,68.4356 20.0214,74.6023 21.5,81C 23.7695,81.7581 25.9361,81.5914 28,80.5C 31.2807,76.5643 33.4474,72.0643 34.5,67C 31.6557,63.653 28.989,60.153 26.5,56.5C 24.2573,55.5258 21.924,55.1924 19.5,55.5C 19.67,54.1779 19.3366,53.0113 18.5,52C 19.8434,48.1607 21.8434,44.6607 24.5,41.5C 27.987,40.4783 29.3203,38.145 28.5,34.5C 30.9892,34.7022 33.3225,34.2022 35.5,33C 40.5,29.3333 45.5,25.6667 50.5,22C 55.5,21.6667 60.5,21.3333 65.5,21C 69.6015,17.1948 69.2682,13.5282 64.5,10C 57.2448,8.775 49.9115,8.10834 42.5,8C 40.6061,6.89887 39.9394,5.56554 40.5,4C 59.6781,1.1801 75.1781,7.34676 87,22.5C 89.6559,26.1438 91.4893,30.1438 92.5,34.5 Z M 3.5,7.5 C 5.96348,9.46114 8.29681,11.6278 10.5,14C 25.5084,14.0183 40.5084,13.5183 55.5,12.5C 55.2865,14.1439 55.6198,15.6439 56.5,17C 53.8333,17.3333 51.1667,17.6667 48.5,18C 42.6744,22.4132 36.6744,26.5799 30.5,30.5C 30.1667,30.3333 29.8333,30.1667 29.5,30C 32.3585,26.6421 35.0251,23.1421 37.5,19.5C 37.2907,18.914 36.9574,18.414 36.5,18C 26.5,17.6667 16.5,17.3333 6.5,17C 4.93699,14.0261 3.93699,10.8594 3.5,7.5 Z M 19.5,22.5 C 31.5966,19.3163 33.0966,21.6496 24,29.5C 21.922,31.6806 22.0886,33.6806 24.5,35.5C 23.3446,36.9505 21.8446,37.9505 20,38.5C 19.0105,41.626 17.8438,44.626 16.5,47.5C 14.8333,47.5 13.1667,47.5 11.5,47.5C 11.6567,48.8734 11.49,50.2068 11,51.5C 11.0868,46.0369 10.2535,40.8702 8.5,36C 12.0338,32.1311 15.8672,28.6311 20,25.5C 20.7401,24.2506 20.5735,23.2506 19.5,22.5 Z M 58.5,29.5 C 60.1764,28.2897 61.5097,28.7897 62.5,31C 64,31.1667 65.5,31.3333 67,31.5C 71.495,30.5789 75.995,30.0789 80.5,30C 83.7793,32.7892 86.7793,35.7892 89.5,39C 88.2117,41.4665 88.2117,43.9665 89.5,46.5C 88.675,47.3857 87.675,47.719 86.5,47.5C 86.6621,49.5273 86.4955,51.5273 86,53.5C 84.5263,55.9154 82.8596,55.9154 81,53.5C 79.395,54.1007 78.0616,55.1007 77,56.5C 76.7811,55.062 76.2811,53.7287 75.5,52.5C 72.6008,51.3584 69.6008,50.6917 66.5,50.5C 66.75,53.214 66.9167,55.8806 67,58.5C 66.3147,55.9427 64.8147,54.1094 62.5,53C 65.7956,48.2555 64.4623,45.5889 58.5,45C 57.5,43.3333 56.5,41.6667 55.5,40C 53.8333,39.6667 52.1667,39.3333 50.5,39C 53.6341,37.8349 56.8008,36.6683 60,35.5C 60.7385,33.1195 60.2385,31.1195 58.5,29.5 Z M 93.5,37.5 C 97.0983,49.7161 95.5983,61.3827 89,72.5C 88.0754,71.9535 87.2421,71.2868 86.5,70.5C 86.8516,67.6913 88.0183,65.358 90,63.5C 89.3858,59.4786 89.5525,55.4786 90.5,51.5C 91.5,51.5 92.5,51.5 93.5,51.5C 93.0947,46.6764 93.0947,42.0098 93.5,37.5 Z M 51.5,43.5 C 55.5992,47.2713 54.5992,48.4379 48.5,47C 49.7101,45.9609 50.7101,44.7942 51.5,43.5 Z M 49.5,51.5 C 52.6676,52.8638 56.0009,53.6972 59.5,54C 58.3705,58.0785 58.2039,62.2452 59,66.5C 60.7337,67.2489 62.567,67.7489 64.5,68C 61.5017,69.6641 60.835,71.9974 62.5,75C 61.9641,79.3265 59.6307,81.4932 55.5,81.5C 54.9941,76.1208 54.1608,70.7875 53,65.5C 49.6667,64.8333 46.3333,64.1667 43,63.5C 42.3333,61.5 42.3333,59.5 43,57.5C 45.6637,56.0016 47.8304,54.0016 49.5,51.5 Z M 19.5,60.5 C 20.6009,59.4017 21.9343,59.235 23.5,60C 25.31,62.6443 27.31,65.1443 29.5,67.5C 29.036,71.0376 27.536,74.0376 25,76.5C 23.6446,70.7763 21.8113,65.443 19.5,60.5 Z M 84.5,75.5 C 85.3764,75.3691 86.0431,75.7025 86.5,76.5C 85.1387,78.0284 83.972,79.6951 83,81.5C 82.2516,79.1599 82.7516,77.1599 84.5,75.5 Z"/></g>
</svg>
