<?xml version="1.0" encoding="utf-8"?>
<!-- Generator: Adobe Illustrator 26.0.3, SVG Export Plug-In . SVG Version: 6.00 Build 0)  -->
<svg version="1.0" id="Layer_1" xmlns="http://www.w3.org/2000/svg" xmlns:xlink="http://www.w3.org/1999/xlink" x="0px" y="0px"
	 viewBox="0 0 246.4 191.9" style="enable-background:new 0 0 246.4 191.9;" xml:space="preserve">
<style type="text/css">
	.st0{fill:#0072BC;}
	.st1{fill:none;}
</style>
<path class="st0" d="M45.6,99.2V73.8h12.6V100c0,3.9,2.5,7.9,7.6,7.9s7.6-4,7.6-7.9V73.8h12.5v25.4c0,10.1-6.3,20.1-20.1,20.1
	S45.6,109.2,45.6,99.2"/>
<rect x="23.2" y="49.8" class="st1" width="200" height="92.3"/>
<path class="st0" d="M97.1,101.6c0,17.1-13.9,31-31,31c0,0,0,0,0,0h-0.7c-17.1,0-31-13.9-31-31V66h62.7V101.6z M98.2,58.4H92
	L88,59.5V61H74.6v-1.5l-4.1-1.6h-3.3l-0.7-0.4c0-0.1,0-0.1,0-0.2c0-0.3-0.2-0.5-0.4-0.7v-2.4h-0.5v2.4c-0.3,0.1-0.4,0.4-0.4,0.7
	c0,0.1,0,0.1,0,0.2l-0.7,0.4H61l-3.9,1.7V61H43.6v-1.5l-4.1-1.1h-6.2l-4.1,1.1v42.1c0,20,16.2,36.2,36.2,36.2h0.7
	c20,0,36.2-16.2,36.2-36.2V61.7l0,0v-2.2L98.2,58.4z"/>
<rect x="23.2" y="49.8" class="st1" width="200" height="92.3"/>
<polygon points="111.3,88.5 119.3,88.5 119.3,90.1 116.2,90.1 116.2,98.2 114.5,98.2 114.5,90.1 111.3,90.1 "/>
<rect x="23.2" y="49.8" class="st1" width="200" height="92.3"/>
<path d="M121.5,96.8c1,0,1.8-0.7,1.9-1.7c0-1-0.7-1.8-1.7-1.9s-1.8,0.7-1.9,1.7c0,0,0,0.1,0,0.1c-0.1,0.9,0.7,1.7,1.6,1.8
	C121.5,96.8,121.5,96.8,121.5,96.8 M121.5,91.8c1.8,0.1,3.2,1.6,3.1,3.4c-0.1,1.8-1.6,3.2-3.4,3.1c-1.8-0.1-3.2-1.5-3.1-3.3
	c0-1.8,1.3-3.2,3.1-3.3C121.3,91.8,121.4,91.8,121.5,91.8"/>
<rect x="23.2" y="49.8" class="st1" width="200" height="92.3"/>
<polygon points="126.3,91.9 127.7,91.9 129.9,94.5 131.9,91.9 133.3,91.9 133.3,98.2 131.7,98.2 131.7,94.4 129.8,96.7 129.8,96.7 
	127.9,94.4 127.9,98.2 126.3,98.2 "/>
<rect x="23.2" y="49.8" class="st1" width="200" height="92.3"/>
<path d="M140.5,97.2c-0.6,0.7-1.5,1.1-2.5,1.1c-1.8,0.1-3.4-1.2-3.5-3c-0.1-1.8,1.2-3.4,3-3.5c0.1,0,0.2,0,0.3,0
	c0.9-0.1,1.8,0.2,2.5,0.8l-0.8,1.3c-0.4-0.4-1-0.6-1.6-0.6c-1,0-1.7,0.8-1.7,1.7c0,0,0,0,0,0c0,1,0.7,1.8,1.7,1.8c0,0,0.1,0,0.1,0
	c0.6,0,1.2-0.3,1.6-0.8L140.5,97.2z"/>
<rect x="23.2" y="49.8" class="st1" width="200" height="92.3"/>
<path d="M145.3,94.9l2.7,3.3h-2.1l-2.5-3.1l2.2-3.1h2L145.3,94.9z M141.8,91.9h1.6v6.2h-1.6V91.9z"/>
<rect x="23.2" y="49.8" class="st1" width="200" height="92.3"/>
<polygon points="148.9,98.2 148.9,91.9 150.5,91.9 150.5,95.9 153.4,91.9 155,91.9 155,98.2 153.4,98.2 153.4,94.2 150.5,98.2 "/>
<rect x="23.2" y="49.8" class="st1" width="200" height="92.3"/>
<path d="M159.2,88.8c0,0.5,0.2,1,0.7,1s0.7-0.5,0.7-1h1.4c0.1,1.1-0.7,2.1-1.9,2.1c-0.1,0-0.2,0-0.3,0c-1.1,0.1-2.1-0.7-2.2-1.8
	c0-0.1,0-0.2,0-0.3H159.2z M156.8,98.2V92h1.6v3.9l2.9-3.9h1.6v6.2h-1.6v-4l-2.9,4L156.8,98.2z"/>
<rect x="23.2" y="49.8" class="st1" width="200" height="92.3"/>
<polygon points="112.1,105.9 116.3,105.9 116.3,107.3 113.7,107.3 113.7,112.1 112.1,112.1 "/>
<rect x="23.2" y="49.8" class="st1" width="200" height="92.3"/>
<path d="M120.1,110.7c0.9,0,1.7-0.7,1.7-1.6c0-0.1,0-0.1,0-0.2c0-0.9-0.7-1.7-1.6-1.8c0,0-0.1,0-0.1,0c-0.9,0-1.7,0.7-1.7,1.6
	c0,0,0,0.1,0,0.1c-0.1,0.9,0.7,1.7,1.6,1.8C120,110.7,120,110.7,120.1,110.7 M120.1,105.7c1.8,0.1,3.2,1.6,3.1,3.4
	c-0.1,1.8-1.6,3.2-3.4,3.1c-1.8-0.1-3.1-1.5-3.2-3.3c-0.1-1.8,1.3-3.2,3.1-3.3C119.9,105.7,120,105.7,120.1,105.7"/>
<rect x="23.2" y="49.8" class="st1" width="200" height="92.3"/>
<path d="M130.3,111.1c-0.6,0.7-1.5,1.1-2.5,1.1c-1.8,0.1-3.4-1.2-3.5-3c-0.1-1.8,1.2-3.4,3-3.5c0.1,0,0.2,0,0.3,0
	c0.9-0.1,1.8,0.2,2.5,0.8l-0.8,1.3c-0.4-0.4-1-0.6-1.5-0.6c-0.9,0-1.7,0.8-1.7,1.7c0,0,0,0,0,0c0,1,0.7,1.8,1.7,1.8c0,0,0.1,0,0.1,0
	c0.6,0,1.2-0.3,1.6-0.8L130.3,111.1z"/>
<rect x="23.2" y="49.8" class="st1" width="200" height="92.3"/>
<path d="M135,112.1c-0.9,2.2-1.5,2.8-2.4,2.8c-0.5,0-1-0.2-1.4-0.5l0.5-1.2c0.2,0.1,0.4,0.2,0.6,0.2c0.4,0,0.7-0.3,0.9-1l0.1-0.3
	l-2.9-6.2h1.9l1.4,3.4c0.1,0.3,0.2,0.6,0.3,0.9c0-0.3,0.1-0.6,0.2-0.9l1.1-3.4h1.8L135,112.1z"/>
<rect x="23.2" y="49.8" class="st1" width="200" height="92.3"/>
<path d="M139.6,110.6h2.3v-3.2h-1.5v0.6C140.3,108.9,140,109.8,139.6,110.6 M137.1,110.6h0.8c0.6-1,0.9-2.1,0.9-3.2l0.1-1.5h4.6v4.8
	h1v2.9H143v-1.4h-4.4v1.4h-1.5L137.1,110.6L137.1,110.6z"/>
<rect x="23.2" y="49.8" class="st1" width="200" height="92.3"/>
<path d="M148.8,110.2v-0.6c-0.3-0.2-0.7-0.3-1.1-0.3c-0.5,0-1,0.2-1,0.8s0.4,0.7,0.9,0.7C148.1,110.8,148.5,110.6,148.8,110.2
	 M145.6,106.2c0.7-0.4,1.4-0.6,2.2-0.6c1.8,0,2.5,0.9,2.5,2.6v3.8h-1.4v-0.7c-0.4,0.5-1.1,0.8-1.8,0.8c-1,0.1-1.9-0.6-2-1.6
	c0-0.1,0-0.2,0-0.3c0-1.1,0.9-2,2-2c0.1,0,0.2,0,0.3,0c0.5,0,1,0.1,1.4,0.4c0-1-0.2-1.6-1.2-1.6c-0.6,0-1.1,0.2-1.6,0.4L145.6,106.2
	z"/>
<rect x="23.2" y="49.8" class="st1" width="200" height="92.3"/>
<path d="M153.5,107.9v2.5c0.4,0.3,0.9,0.4,1.3,0.4c0.9,0,1.7-0.7,1.7-1.6c0-0.1,0-0.1,0-0.2c0.1-0.9-0.5-1.6-1.4-1.7
	c-0.1,0-0.2,0-0.2,0C154.4,107.2,153.9,107.5,153.5,107.9 M152,105.9h1.6v0.6c0.5-0.5,1.2-0.8,1.9-0.8c1.6,0,2.9,1.3,2.8,2.9
	c0,0.1,0,0.2,0,0.3c0.1,1.8-1.3,3.3-3,3.4c-0.1,0-0.2,0-0.3,0c-0.5,0-1-0.1-1.5-0.3v2.9H152C152,114.9,152,105.9,152,105.9z"/>
<rect x="23.2" y="49.8" class="st1" width="200" height="92.3"/>
<path d="M165.1,111.1c-0.6,0.7-1.5,1.1-2.5,1.1c-1.8,0.1-3.4-1.2-3.5-3s1.2-3.4,3-3.5c0.1,0,0.2,0,0.3,0c0.9-0.1,1.8,0.2,2.5,0.8
	l-0.8,1.3c-0.4-0.4-1-0.6-1.6-0.6c-0.9,0-1.7,0.7-1.7,1.7c0,0,0,0.1,0,0.1c0,1,0.8,1.8,1.7,1.8c0,0,0.1,0,0.1,0
	c0.6,0,1.2-0.3,1.6-0.8L165.1,111.1z"/>
<rect x="23.2" y="49.8" class="st1" width="200" height="92.3"/>
<polygon points="165.6,105.9 171.3,105.9 171.3,107.4 169.3,107.4 169.3,112.1 167.7,112.1 167.7,107.4 165.6,107.4 "/>
<rect x="23.2" y="49.8" class="st1" width="200" height="92.3"/>
<path d="M174,109.4v1.4c0.2,0,0.7,0.1,1.1,0.1c0.7,0,1.1-0.3,1.1-0.7s-0.4-0.7-1.2-0.7L174,109.4z M174,107.1v1.4h1
	c0.5,0,0.9-0.2,0.9-0.7s-0.4-0.7-1-0.7C174.6,107.1,174.2,107.1,174,107.1 M172.4,105.8c0.5,0,1.5-0.1,2.4-0.1
	c1.8,0,2.8,0.5,2.8,1.6c0,0.7-0.5,1.3-1.2,1.4l0,0c0.9,0.2,1.3,0.7,1.3,1.4c0,1.2-1,1.9-3,1.9c-0.8,0-1.9-0.1-2.5-0.1L172.4,105.8
	L172.4,105.8z"/>
<rect x="23.2" y="49.8" class="st1" width="200" height="92.3"/>
<path d="M180.6,108.4h3.1c0-0.7-0.5-1.3-1.3-1.4c-0.1,0-0.1,0-0.2,0C181.4,107,180.7,107.6,180.6,108.4 M184.7,111.5
	c-0.7,0.5-1.5,0.8-2.4,0.8c-1.8,0.1-3.4-1.3-3.5-3.1c-0.1-1.8,1.3-3.4,3.1-3.5c0.1,0,0.2,0,0.4,0c1.6-0.1,2.9,1.2,2.9,2.7
	c0,0.1,0,0.1,0,0.2c0,0.3,0,0.6-0.1,0.9h-4.5c0.1,0.9,1,1.5,1.9,1.5c0.6,0,1.2-0.2,1.8-0.6L184.7,111.5z"/>
<rect x="23.2" y="49.8" class="st1" width="200" height="92.3"/>
<polygon points="190.9,109.7 188.1,109.7 188.1,112.1 186.5,112.1 186.5,105.9 188.1,105.9 188.1,108.2 190.9,108.2 190.9,105.9 
	192.5,105.9 192.5,112.1 190.9,112.1 "/>
<rect x="23.2" y="49.8" class="st1" width="200" height="92.3"/>
<polygon points="198.5,109.7 195.8,109.7 195.8,112.1 194.2,112.1 194.2,105.9 195.8,105.9 195.8,108.2 198.5,108.2 198.5,105.9 
	200.1,105.9 200.1,112.1 198.5,112.1 "/>
<rect x="23.2" y="49.8" class="st1" width="200" height="92.3"/>
<path d="M207.9,105.8h1.6v6.2h-1.6V105.8z M203.5,108.8v1.9h0.6c0.9,0,1.2-0.4,1.2-0.9s-0.3-0.9-1.2-0.9H203.5z M201.9,105.8h1.6
	v1.7h0.8c2.1,0,2.7,1.1,2.7,2.2s-0.8,2.4-2.9,2.4h-2.2L201.9,105.8z"/>
<rect x="23.2" y="49.8" class="st1" width="200" height="92.3"/>
<path d="M213.6,102.7c0,0.5,0.2,1,0.7,1s0.7-0.5,0.7-1h1.5c0.1,1.1-0.7,2.1-1.8,2.1c-0.1,0-0.2,0-0.3,0c-1.1,0.1-2.1-0.7-2.2-1.8
	c0-0.1,0-0.2,0-0.3H213.6z M211.2,112.1v-6.2h1.6v4l2.9-4h1.6v6.2h-1.6v-3.9l-2.9,3.9H211.2z"/>
<rect x="23.2" y="49.8" class="st1" width="200" height="92.3"/>
<path d="M115.6,126c-0.9,2.2-1.5,2.8-2.4,2.8c-0.5,0-1-0.2-1.3-0.5l0.5-1.2c0.2,0.1,0.4,0.2,0.7,0.2c0.4,0,0.7-0.3,1-1l0.1-0.3
	l-3-6.2h2l1.4,3.4c0.1,0.3,0.2,0.6,0.3,0.9c0-0.3,0.1-0.6,0.2-0.9l1.1-3.4h1.8L115.6,126z"/>
<rect x="23.2" y="49.8" class="st1" width="200" height="92.3"/>
<polygon points="123.4,123.6 120.6,123.6 120.6,126 119,126 119,119.8 120.6,119.8 120.6,122.1 123.4,122.1 123.4,119.8 125,119.8 
	125,126 123.4,126 "/>
<rect x="23.2" y="49.8" class="st1" width="200" height="92.3"/>
<polygon points="126.7,126 126.7,119.8 128.3,119.8 128.3,123.7 131.2,119.8 132.8,119.8 132.8,126 131.2,126 131.2,122.1 
	128.3,126 "/>
<rect x="23.2" y="49.8" class="st1" width="200" height="92.3"/>
<path d="M136.2,123.4v1.4c0.2,0,0.7,0.1,1,0.1c0.7,0,1.1-0.3,1.1-0.7s-0.4-0.7-1.2-0.7L136.2,123.4z M136.2,121v1.4h1
	c0.5,0,1-0.2,1-0.7s-0.4-0.7-1-0.7L136.2,121 M134.6,119.8c0.5,0,1.5-0.1,2.4-0.1c1.8,0,2.8,0.5,2.8,1.6c0,0.7-0.5,1.3-1.2,1.4l0,0
	c0.9,0.2,1.3,0.7,1.3,1.4c0,1.2-1,1.9-3,1.9c-0.8,0-1.9-0.1-2.5-0.1L134.6,119.8L134.6,119.8z"/>
<rect x="23.2" y="49.8" class="st1" width="200" height="92.3"/>
<path d="M142.7,122.3h3.1c0-0.7-0.5-1.3-1.2-1.4c-0.1,0-0.1,0-0.2,0C143.5,120.9,142.8,121.5,142.7,122.3 M146.9,125.4
	c-0.7,0.5-1.5,0.8-2.4,0.8c-1.8,0.1-3.3-1.3-3.4-3.1s1.3-3.3,3.1-3.4c0.1,0,0.2,0,0.4,0c1.6-0.1,2.9,1.2,2.9,2.7c0,0.1,0,0.1,0,0.2
	c0,0.3,0,0.6-0.1,0.9h-4.5c0.1,0.9,1,1.5,1.9,1.4c0.6,0,1.2-0.2,1.8-0.6L146.9,125.4z"/>
<rect x="23.2" y="49.8" class="st1" width="200" height="92.3"/>
<path d="M150.2,121.8v2.5c0.4,0.3,0.9,0.4,1.3,0.4c0.9,0,1.7-0.7,1.7-1.7c0-0.1,0-0.1,0-0.2c0.1-0.9-0.5-1.6-1.4-1.7
	c-0.1,0-0.2,0-0.2,0C151.1,121.1,150.6,121.4,150.2,121.8 M148.6,119.8h1.6v0.6c0.5-0.5,1.2-0.8,1.9-0.7c1.6,0,2.8,1.3,2.8,2.9
	c0,0.1,0,0.2,0,0.3c0.1,1.8-1.3,3.3-3,3.4c-0.1,0-0.2,0-0.3,0c-0.5,0-1-0.1-1.5-0.3v2.9h-1.6V119.8z"/>
<rect x="23.2" y="49.8" class="st1" width="200" height="92.3"/>
<path d="M161.9,125.1c-0.6,0.7-1.5,1.1-2.5,1.1c-1.8,0.1-3.4-1.2-3.5-3c-0.1-1.8,1.2-3.4,3-3.5c0.1,0,0.2,0,0.3,0
	c0.9-0.1,1.8,0.2,2.5,0.8l-0.8,1.3c-0.4-0.4-1-0.6-1.6-0.6c-0.9,0-1.7,0.8-1.7,1.7c0,0,0,0,0,0.1c0,1,0.7,1.8,1.7,1.8
	c0,0,0.1,0,0.1,0c0.6,0,1.2-0.3,1.6-0.8L161.9,125.1z"/>
<rect x="23.2" y="49.8" class="st1" width="200" height="92.3"/>
<polygon points="163.1,126 163.1,119.8 164.7,119.8 164.7,123.7 167.6,119.8 169.2,119.8 169.2,126 167.6,126 167.6,122.1 
	164.7,126 "/>
<rect x="23.2" y="49.8" class="st1" width="200" height="92.3"/>
<polygon points="170.4,119.8 176,119.8 176,121.4 174,121.4 174,126 172.4,126 172.4,121.4 170.4,121.4 "/>
<rect x="23.2" y="49.8" class="st1" width="200" height="92.3"/>
<path d="M178.2,122.3h3c0-0.7-0.5-1.3-1.2-1.4c-0.1,0-0.1,0-0.2,0C179,120.9,178.3,121.5,178.2,122.3 M182.3,125.4
	c-0.7,0.5-1.5,0.8-2.4,0.8c-1.8,0.1-3.3-1.3-3.4-3.1s1.3-3.3,3.1-3.4c0.1,0,0.2,0,0.4,0c1.6-0.1,2.9,1.2,2.9,2.7c0,0.1,0,0.1,0,0.2
	c0,0.3,0,0.6-0.1,0.9h-4.6c0.1,0.9,1,1.5,1.9,1.4c0.6,0,1.3-0.2,1.8-0.6L182.3,125.4z"/>
<rect x="23.2" y="49.8" class="st1" width="200" height="92.3"/>
<polygon points="183.4,119.8 189.1,119.8 189.1,121.4 187,121.4 187,126 185.5,126 185.5,121.4 183.4,121.4 "/>
<rect x="23.2" y="49.8" class="st1" width="200" height="92.3"/>
<polygon points="115.9,69 112.9,69 112.9,71.4 112.3,71.4 112.3,66 112.9,66 112.9,68.3 115.9,68.3 115.9,66 116.6,66 116.6,71.4 
	115.9,71.4 "/>
<rect x="23.2" y="49.8" class="st1" width="200" height="92.3"/>
<path d="M119.9,70.5V70c-0.2-0.2-0.5-0.2-0.8-0.2c-0.4,0-0.8,0.2-0.8,0.6s0.2,0.6,0.6,0.6C119.4,70.9,119.7,70.8,119.9,70.5
	 M118,68.2c0.4-0.2,0.8-0.3,1.2-0.3c1,0,1.3,0.5,1.3,1.4v2.2H120V71c-0.3,0.3-0.7,0.5-1.1,0.5c-0.6,0-1-0.4-1.1-0.9
	c0-0.1,0-0.1,0-0.2c0-0.7,0.6-1.1,1.3-1.1c0.3,0,0.6,0.1,0.9,0.2c0-0.7-0.1-1.1-0.8-1.1c-0.4,0-0.7,0.1-1,0.2L118,68.2z"/>
<rect x="23.2" y="49.8" class="st1" width="200" height="92.3"/>
<polygon points="121.6,67.9 122.2,67.9 122.2,70.9 124.1,70.9 124.1,67.9 124.7,67.9 124.7,70.9 125.3,70.9 125.3,72.3 124.7,72.3 
	124.7,71.4 121.6,71.4 "/>
<rect x="23.2" y="49.8" class="st1" width="200" height="92.3"/>
<polygon points="125.9,71.4 125.9,67.9 126.6,67.9 126.6,70.5 128.6,67.9 129.2,67.9 129.2,71.4 128.6,71.4 128.6,68.8 126.6,71.4 
	"/>
<rect x="23.2" y="49.8" class="st1" width="200" height="92.3"/>
<path d="M132,71c0.7,0,1.3-0.5,1.3-1.2s-0.5-1.3-1.2-1.3c-0.7,0-1.3,0.5-1.3,1.2c0,0,0,0,0,0c0,0.7,0.5,1.2,1.1,1.2
	C131.9,71,131.9,71,132,71 M132,67.9c1,0,1.8,0.9,1.8,1.9s-0.9,1.8-1.9,1.8c-1,0-1.8-0.8-1.8-1.8c0-1,0.7-1.8,1.7-1.8
	C131.9,67.9,131.9,67.9,132,67.9"/>
<rect x="23.2" y="49.8" class="st1" width="200" height="92.3"/>
<polygon points="137.3,70 135.4,70 135.4,71.4 134.7,71.4 134.7,67.9 135.4,67.9 135.4,69.4 137.3,69.4 137.3,67.9 137.9,67.9 
	137.9,71.4 137.3,71.4 "/>
<rect x="23.2" y="49.8" class="st1" width="200" height="92.3"/>
<path d="M141,70.5V70c-0.2-0.2-0.5-0.2-0.8-0.2c-0.4,0-0.8,0.2-0.8,0.6s0.2,0.6,0.6,0.6C140.5,70.9,140.8,70.8,141,70.5 M139.1,68.2
	c0.4-0.2,0.8-0.3,1.2-0.3c1,0,1.3,0.5,1.3,1.4v2.2H141V71c-0.3,0.3-0.7,0.5-1.1,0.5c-0.6,0-1-0.4-1.1-0.9c0-0.1,0-0.1,0-0.2
	c0-0.7,0.6-1.1,1.3-1.1c0.3,0,0.6,0.1,0.9,0.2c0-0.7-0.1-1.1-0.8-1.1c-0.4,0-0.7,0.1-1,0.2L139.1,68.2z"/>
<rect x="23.2" y="49.8" class="st1" width="200" height="92.3"/>
<path d="M145,68.6h-1.2v0.6c-0.2,2-0.7,2.3-1.4,2.3v-0.6c0.3,0,0.8-0.2,0.8-1.9l0-1.1h2.4v3.5H145V68.6z"/>
<rect x="23.2" y="49.8" class="st1" width="200" height="92.3"/>
<path d="M147.4,69.6v1.3h0.5c0.6,0,0.8-0.2,0.8-0.6s-0.2-0.6-0.8-0.6H147.4z M146.8,68h0.6v1h0.6c1.1,0,1.4,0.6,1.4,1.2
	s-0.4,1.2-1.5,1.2h-1.2V68z"/>
<rect x="23.2" y="49.8" class="st1" width="200" height="92.3"/>
<polygon points="152.8,70 150.9,70 150.9,71.4 150.3,71.4 150.3,67.9 150.9,67.9 150.9,69.4 152.8,69.4 152.8,67.9 153.5,67.9 
	153.5,71.4 152.8,71.4 "/>
<rect x="23.2" y="49.8" class="st1" width="200" height="92.3"/>
<path d="M157.8,68h0.6v3.5h-0.6V68z M155.2,69.6v1.3h0.4c0.6,0,0.9-0.2,0.9-0.6s-0.2-0.6-0.8-0.6H155.2z M154.6,68h0.6v1h0.6
	c1.1,0,1.4,0.6,1.4,1.2s-0.4,1.2-1.5,1.2h-1.1L154.6,68L154.6,68z"/>
<rect x="23.2" y="49.8" class="st1" width="200" height="92.3"/>
<path d="M160.7,66.1c0,0.4,0.2,0.6,0.6,0.6s0.5-0.2,0.6-0.6h0.6c0,0.6-0.5,1.1-1.1,1.1c0,0-0.1,0-0.1,0c-0.6,0.1-1.1-0.4-1.2-0.9
	c0-0.1,0-0.1,0-0.2H160.7z M159.6,71.4V68h0.6v2.6l2-2.6h0.6v3.5h-0.6v-2.6l-2,2.6H159.6z"/>
<rect x="23.2" y="49.8" class="st1" width="200" height="92.3"/>
<polygon points="112,80.8 112,77.3 112.6,77.3 112.6,79.9 114.7,77.3 115.3,77.3 115.3,80.8 114.7,80.8 114.7,78.2 112.6,80.8 "/>
<rect x="23.2" y="49.8" class="st1" width="200" height="92.3"/>
<path d="M119.4,80.3c-0.3,0.4-0.8,0.6-1.3,0.6c-1,0.1-1.8-0.7-1.8-1.7c0-0.1,0-0.1,0-0.2c0-1,0.7-1.8,1.7-1.8c0,0,0,0,0.1,0
	c0.5,0,1,0.1,1.4,0.5l-0.3,0.5c-0.3-0.2-0.6-0.4-1-0.4c-0.7,0-1.2,0.6-1.2,1.3s0.6,1.2,1.3,1.2c0.4,0,0.7-0.2,1-0.5L119.4,80.3z"/>
<rect x="23.2" y="49.8" class="st1" width="200" height="92.3"/>
<path d="M123,80.3c-0.3,0.4-0.8,0.6-1.3,0.6c-1,0-1.9-0.8-1.9-1.8s0.8-1.9,1.8-1.9c0.5,0,1,0.1,1.4,0.5l-0.3,0.5
	c-0.3-0.2-0.6-0.4-1-0.4c-0.7,0-1.2,0.6-1.2,1.3s0.6,1.2,1.3,1.2c0.4,0,0.7-0.2,1-0.5L123,80.3z"/>
<rect x="23.2" y="49.8" class="st1" width="200" height="92.3"/>
<path d="M126.2,77.9H125v0.6c-0.2,2-0.7,2.3-1.4,2.3v-0.6c0.3,0,0.8-0.2,0.8-1.8l0.1-1.1h2.4v3.5h-0.7V77.9z"/>
<rect x="23.2" y="49.8" class="st1" width="200" height="92.3"/>
<path d="M128.4,78.7h2.1c0-0.5-0.4-0.9-0.9-0.9c0,0,0,0-0.1,0C128.9,77.7,128.4,78.2,128.4,78.7 M130.9,80.4
	c-0.4,0.3-0.8,0.5-1.3,0.5c-1,0.1-1.8-0.6-1.9-1.6c0-0.1,0-0.2,0-0.2c-0.1-0.9,0.7-1.8,1.6-1.8c0.1,0,0.1,0,0.2,0
	c0.9,0,1.6,0.6,1.6,1.5c0,0,0,0.1,0,0.1c0,0.1,0,0.3,0,0.4h-2.7c0,0.6,0.6,1.1,1.2,1.1c0,0,0,0,0,0c0.4,0,0.8-0.1,1.1-0.4
	L130.9,80.4z"/>
<rect x="23.2" y="49.8" class="st1" width="200" height="92.3"/>
<path d="M132.5,80.2h1.7v-2.3H133v0.6C132.9,79,132.8,79.6,132.5,80.2 M131.4,80.2h0.4c0.3-0.6,0.5-1.3,0.5-2v-0.9h2.4v2.9h0.6v1.4
	h-0.6v-0.9h-2.8v0.9h-0.6L131.4,80.2z"/>
<rect x="23.2" y="49.8" class="st1" width="200" height="92.3"/>
<path d="M137.7,80.3c0.7,0,1.3-0.5,1.3-1.2s-0.5-1.3-1.2-1.3c-0.7,0-1.3,0.5-1.3,1.2c0,0,0,0,0,0c0,0.7,0.5,1.2,1.1,1.2
	C137.6,80.3,137.6,80.3,137.7,80.3 M137.7,77.2c1,0,1.8,0.9,1.8,1.9c0,1-0.9,1.8-1.9,1.8c-1,0-1.8-0.8-1.8-1.8c0-1,0.7-1.8,1.7-1.8
	C137.6,77.2,137.6,77.2,137.7,77.2"/>
<rect x="23.2" y="49.8" class="st1" width="200" height="92.3"/>
<path d="M141.1,79.2v1.1c0.2,0,0.4,0,0.7,0c0.6,0,0.9-0.2,0.9-0.6s-0.3-0.5-0.9-0.5L141.1,79.2z M141.1,77.8v1h0.8
	c0.4,0,0.7-0.2,0.7-0.6s-0.3-0.5-0.8-0.5L141.1,77.8 M140.4,77.2c0.3,0,0.8,0,1.3,0c1,0,1.5,0.3,1.5,0.9c0,0.4-0.3,0.8-0.7,0.8l0,0
	c0.6,0.1,0.8,0.4,0.8,0.8c0,0.7-0.5,1-1.6,1c-0.4,0-1,0-1.3,0L140.4,77.2L140.4,77.2z"/>
<rect x="23.2" y="49.8" class="st1" width="200" height="92.3"/>
<path d="M146.2,79.8v-0.4c-0.2-0.2-0.5-0.2-0.8-0.2c-0.4,0-0.8,0.2-0.8,0.6c0,0.3,0.2,0.6,0.5,0.6c0,0,0.1,0,0.1,0
	C145.7,80.3,146,80.1,146.2,79.8 M144.3,77.5c0.4-0.2,0.8-0.3,1.2-0.3c1,0,1.4,0.5,1.4,1.4v2.2h-0.6v-0.4c-0.3,0.3-0.7,0.5-1.1,0.5
	c-0.6,0-1-0.4-1.1-0.9c0-0.1,0-0.1,0-0.2c0-0.7,0.6-1.1,1.3-1.1c0.3,0,0.6,0.1,0.9,0.2c0-0.7-0.1-1.1-0.8-1.1c-0.4,0-0.7,0.1-1,0.3
	L144.3,77.5z"/>
<rect x="23.2" y="49.8" class="st1" width="200" height="92.3"/>
<polygon points="147.4,77.3 150.6,77.3 150.6,77.9 149.3,77.9 149.3,80.8 148.7,80.8 148.7,77.9 147.4,77.9 "/>
<rect x="23.2" y="49.8" class="st1" width="200" height="92.3"/>
<path d="M151.6,78.7h2.1c0-0.5-0.4-0.9-0.9-0.9c0,0,0,0-0.1,0C152.2,77.7,151.7,78.1,151.6,78.7C151.6,78.7,151.6,78.7,151.6,78.7
	 M154.2,80.4c-0.4,0.3-0.8,0.5-1.3,0.5c-1,0.1-1.8-0.6-1.9-1.6c0-0.1,0-0.2,0-0.2c-0.1-0.9,0.7-1.8,1.6-1.8c0.1,0,0.1,0,0.2,0
	c0.9,0,1.6,0.6,1.6,1.5c0,0,0,0.1,0,0.1c0,0.1,0,0.3,0,0.4h-2.7c0,0.6,0.6,1.1,1.2,1.1c0,0,0,0,0,0c0.4,0,0.8-0.1,1.1-0.4
	L154.2,80.4z"/>
<rect x="23.2" y="49.8" class="st1" width="200" height="92.3"/>
<path d="M157.5,77.9h-1.3v0.6c-0.2,2-0.7,2.3-1.4,2.3l-0.1-0.6c0.3,0,0.8-0.2,0.9-1.8l0.1-1.1h2.4v3.5h-0.6V77.9z"/>
<rect x="23.2" y="49.8" class="st1" width="200" height="92.3"/>
<path d="M159.9,79v1.3h0.5c0.6,0,0.9-0.2,0.9-0.6S161,79,160.4,79H159.9z M159.2,77.3h0.6v1.1h0.6c1.1,0,1.4,0.6,1.4,1.2
	s-0.4,1.2-1.5,1.2h-1.2V77.3z"/>
<rect x="23.2" y="49.8" class="st1" width="200" height="92.3"/>
<path d="M165.7,80.3c-0.3,0.4-0.8,0.6-1.3,0.6c-1,0-1.9-0.8-1.9-1.8c0-1,0.8-1.9,1.8-1.9c0.5,0,1,0.1,1.4,0.5l-0.3,0.5
	c-0.3-0.2-0.6-0.4-1-0.4c-0.7,0-1.2,0.6-1.2,1.3s0.6,1.2,1.3,1.2c0.4,0,0.7-0.2,1-0.5L165.7,80.3z"/>
<rect x="23.2" y="49.8" class="st1" width="200" height="92.3"/>
<path d="M168,79l1.7,1.8h-0.9l-1.6-1.8l1.5-1.7h0.8L168,79z M166.5,77.3h0.6v3.5h-0.6V77.3z"/>
<rect x="23.2" y="49.8" class="st1" width="200" height="92.3"/>
<polygon points="170.4,80.8 170.4,77.3 171,77.3 171,79.9 173,77.3 173.6,77.3 173.6,80.8 173,80.8 173,78.2 171,80.8 "/>
<rect x="23.2" y="49.8" class="st1" width="200" height="92.3"/>
<path d="M175.8,75.5c0,0.4,0.2,0.6,0.6,0.6s0.5-0.2,0.6-0.6h0.6c0,0.6-0.5,1.1-1,1.1c0,0-0.1,0-0.1,0c-0.6,0.1-1.1-0.3-1.2-0.9
	c0-0.1,0-0.1,0-0.2H175.8z M174.8,80.8v-3.5h0.6v2.6l2-2.6h0.6v3.5h-0.6v-2.6l-2,2.6H174.8z"/>
<rect x="23.2" y="49.8" class="st1" width="200" height="92.3"/>
<polygon class="st0" points="48.3,115.7 50.7,118.1 50.1,118.7 49.2,117.9 46.9,120.1 46.3,119.4 48.6,117.2 47.7,116.3 "/>
<rect x="23.2" y="49.8" class="st1" width="200" height="92.3"/>
<path class="st0" d="M51.2,122.6c0.5,0.4,1.2,0.2,1.6-0.3c0,0,0.1-0.1,0.1-0.1c0.4-0.5,0.3-1.3-0.3-1.6c0,0,0,0-0.1,0
	c-0.5-0.4-1.3-0.2-1.6,0.3c0,0,0,0.1-0.1,0.1C50.5,121.4,50.7,122.2,51.2,122.6C51.2,122.5,51.2,122.5,51.2,122.6 M53.1,119.7
	c1,0.5,1.4,1.7,0.9,2.7c-0.1,0.1-0.1,0.2-0.2,0.3c-0.6,1-1.9,1.3-2.9,0.6c0,0-0.1-0.1-0.1-0.1c-1-0.5-1.4-1.7-0.8-2.7
	c0.1-0.1,0.1-0.2,0.2-0.3c0.6-1,1.9-1.3,2.8-0.7C53,119.7,53,119.7,53.1,119.7"/>
<rect x="23.2" y="49.8" class="st1" width="200" height="92.3"/>
<polygon class="st0" points="55.8,121.4 56.7,121.7 57.3,123.8 59,122.5 59.8,122.8 58.5,126.7 57.6,126.4 58.5,123.9 56.9,125.1 
	56.7,125 56.2,123.1 55.3,125.6 54.4,125.3 "/>
<rect x="23.2" y="49.8" class="st1" width="200" height="92.3"/>
<path class="st0" d="M60.9,124.1c0.1-0.7,0.7-1.1,1.4-1c0,0,0,0,0.1,0c0.4,0,0.9,0.2,1.1,0.6l-0.6,0.6c-0.1-0.2-0.3-0.3-0.6-0.4
	c-0.3,0-0.4,0.1-0.5,0.2c-0.1,0.7,1.6,0.7,1.5,2.1c-0.1,0.7-0.8,1.1-1.5,1c0,0,0,0,0,0c-0.5,0-1-0.3-1.3-0.8l0.6-0.6
	c0.2,0.3,0.5,0.5,0.8,0.5c0.2,0,0.4-0.1,0.4-0.3C62.5,125.5,60.8,125.4,60.9,124.1"/>
<rect x="23.2" y="49.8" class="st1" width="200" height="92.3"/>
<polygon class="st0" points="65,123.4 66,123.4 66,125.2 67.3,123.3 68.4,123.3 66.9,125.2 68.6,127.4 67.4,127.4 66,125.5 
	66,127.5 65.1,127.5 "/>
<rect x="23.2" y="49.8" class="st1" width="200" height="92.3"/>
<polygon class="st0" points="72.8,122.5 73.4,122.3 74.5,126.2 73.7,126.5 72.9,123.7 72.6,124.1 71.9,123.5 "/>
<rect x="23.2" y="49.8" class="st1" width="200" height="92.3"/>
<path class="st0" d="M77,123.5c-0.2,0.1-0.4,0.3-0.3,0.6c0,0,0,0,0,0c0.1,0.2,0.3,0.3,0.7,0.2s0.4-0.4,0.3-0.6
	c-0.1-0.2-0.4-0.3-0.6-0.2C77.1,123.4,77.1,123.4,77,123.5L77,123.5z M76.7,122.6c0.2-0.1,0.3-0.3,0.2-0.5c0,0,0,0,0,0
	c-0.1-0.2-0.3-0.3-0.6-0.1c-0.3,0.1-0.3,0.3-0.2,0.5C76.2,122.7,76.4,122.8,76.7,122.6C76.6,122.7,76.6,122.7,76.7,122.6L76.7,122.6
	z M75.9,124.6c-0.2-0.4-0.2-0.9,0.1-1.2l0,0c-0.4,0-0.7-0.3-0.9-0.7c-0.2-0.8,0.3-1.5,1.1-1.7c0.5-0.1,1.1,0.1,1.4,0.5
	c0.2,0.4,0.1,0.8-0.1,1.1l0,0c0.4,0,0.8,0.2,1,0.6c0.3,0.7,0,1.4-0.8,1.7C77,125.4,76.2,125.3,75.9,124.6"/>
<rect x="23.2" y="49.8" class="st1" width="200" height="92.3"/>
<polygon class="st0" points="78,120.2 80.2,118.6 80.6,119.1 81.5,122.8 80.7,123.3 79.9,119.9 78.5,120.9 "/>
<rect x="23.2" y="49.8" class="st1" width="200" height="92.3"/>
<path class="st0" d="M83.7,118.7c-0.2,0.2-0.2,0.5,0,0.6c0,0,0,0,0,0c0.2,0.2,0.4,0.2,0.7-0.1s0.2-0.5,0.1-0.7
	c-0.2-0.2-0.4-0.2-0.6,0C83.8,118.5,83.8,118.6,83.7,118.7L83.7,118.7z M83.1,118c0.2-0.1,0.2-0.4,0-0.5c0,0,0,0,0,0
	c-0.2-0.2-0.4-0.1-0.6,0.1c-0.2,0.1-0.2,0.4,0,0.5c0,0,0,0,0,0C82.6,118.3,82.9,118.3,83.1,118C83,118.1,83,118.1,83.1,118L83.1,118
	z M83.1,120.1c-0.3-0.3-0.5-0.8-0.3-1.2l0,0c-0.4,0.1-0.8,0-1.1-0.3c-0.4-0.5-0.4-1.3,0.1-1.7c0,0,0,0,0,0c0.4-0.5,1.2-0.7,1.7-0.3
	c0,0,0,0,0,0c0.3,0.3,0.4,0.7,0.3,1.1l0,0c0.4-0.2,0.9-0.1,1.2,0.2c0.5,0.5,0.5,1.3-0.1,1.8c0,0-0.1,0.1-0.1,0.1
	C84.3,120.5,83.6,120.6,83.1,120.1"/>
<rect x="23.2" y="49.8" class="st1" width="200" height="92.3"/>
</svg>
